<svg version="1.1" xmlns="http://www.w3.org/2000/svg" xmlns:xlink="http://www.w3.org/1999/xlink" x="0px" y="0px" width="486.7px"
	 height="497.6px" viewBox="0 0 486.7 497.6" style="enable-background:new 0 0 486.7 497.6;" xml:space="preserve">
<defs>
</defs>
<g id="QoVF5c.tif_1_">
	<g>
		<path fill="#bfad86" d="M8.3,280.8c3.4,1.4,6.9,2.5,9.4,5.6c1.6,2,3.4,3.8,5,5.6c0.2-0.1,0.4-0.1,0.6-0.2c0-0.6,0.2-1.4,0-1.9
			c-1.2-2.9-0.4-5.6,0.4-8.4c0.2-0.8,0.6-1.7,0.5-2.6c-0.1-0.8-0.5-1.7-1-2.3c-4.3-4.3-8.2-8.7-10.3-14.5c-0.7-1.8-1.8-3.5-2.9-5.2
			c-0.9-1.4-1.6-2.8-1.4-4.5c0.3-2.6-0.6-5-1.1-7.5c-0.3-1.1-0.5-2.2,0.3-3.2c0.2-0.3,0.4-0.7,0.4-1.1c-0.2-3.2,0.1-6.4-1.5-9.4
			c-1.6-3-3.2-5.9-5.5-8.4c-0.7-0.7-1.3-1.6-0.8-3.1c1,0.9,1.8,2.1,2.9,2.5c1.5,0.5,1.6,1.9,2.5,2.8c0.9,0.9,1.6,2,2.6,3.3
			c0.7-2,1.4-3.6,1.9-5.3c0.4-1.1,0.8-2.3,1.1-3.4c0.5-2,1.3-3.7,2.8-5.2c1.2-1.2,1.9-2.9,3-4.3c3.1-3.6,6.6-6.9,10.4-9.9
			c1.5-1.2,2.6-2.8,3.4-4.6c1.7-3.7,3.6-7.4,5.4-11.2c0.2-0.5,0.5-1.1,0.9-1.4c3.3-2.2,4.3-5.9,5.7-9.2c1.6-3.7,2.7-7.5,3.9-11.3
			c0.2-0.7,0.3-1.6,0.4-2.3c0.3-2.3,0.9-4.5,1.9-6.6c1.1-2.3,2-4.8,3-7.3c0.1-0.4,0.2-0.8,0.4-1.1c1.1-2,2.3-4,3.4-6
			c0.2-0.3,0.3-0.7,0.3-1.1c0.1-5.2,0-10.4,0.2-15.6c0.2-5.5,1.2-11,4.1-15.9c0.6-1,1.2-2,0.7-3.4c-0.2-0.5,0.1-1.4,0.5-2
			c2-3.2,4-6.3,6.1-9.5c1.4-2,3.2-3.5,5.3-4.7c2.2-1.3,4.3-2.7,6.6-3.9c3.2-1.6,6.5-2.1,9.9-2.1c1.7,0,2.4-0.6,3.2-2.1
			c1.9-3.4,3.1-7,4.7-10.5c1.3-2.7,2.9-5.1,5.4-6.9c3.9-2.7,7.8-5.5,11.8-8.2c1-0.7,2.3-0.9,3.5-1.4c0.2-0.1,0.5-0.1,0.7-0.2
			c2.3-1.7,4.8-2.2,7.6-2.4c0.9,0,2-1.1,2.5-2c1.7-3.4,4.6-5.7,6.8-8.6c0.3-0.4,0.6-0.9,1-1c2.9-0.9,4.4-3.8,6.9-5.2
			c0.8-0.4,1.5-0.9,2.4-1.1c2.8-0.8,5.5-1.5,8.3-2.2c0.6-0.1,1.2,0,1.8,0c0,0.2,0.1,0.3,0.1,0.5c-0.3,0.2-0.5,0.5-0.8,0.5
			c-1.8,0-3.3,1.3-5.1,1.2c-0.3,0-0.6,0.2-0.9,0.4c-2.5,1.6-5,3.2-7.4,4.9c-3,2.1-5,5.1-7,8.1c-0.6,0.9-1.3,1.6-1.7,2.6
			c-1.1,2.4-2.9,4.5-2.5,7.9c0.7-0.6,1-1,1.4-1.3c1.7-1.9,3.4-3.8,5.1-5.7c0.4-0.5,0.8-1,1.2-1.5c0.8-1,0.8-1.9-0.2-2.8
			c-0.2-0.2-0.4-0.5-0.7-0.9c4.3-3.5,8.1-7.5,12.8-10.4c0.2-0.1,0.4-0.3,0.6-0.3c1.9-0.4,3.8-0.9,5.8-1.3c4-0.9,7.9-1,11.9,0
			c2.6,0.6,5.4,0.7,8,1.3c2.9,0.6,5.7,1.6,8.5,2.4c0.7,0.2,1.4,0.5,2,0.6c1.6,0.1,2-0.2,2.1-1.8c0.2-2.5,1.4-4.3,3.4-5.8
			c0.6-0.5,1.2-1.1,1.7-1.6c0.5-0.5,0.9-1.2,1.5-1.5c3.7-1.8,6.5-4.8,9.9-7.1c0.9-0.6,2-1,2.3-2.3c0.5-1.9,1.2-3.8,0.8-5.9
			c-0.7-3.7-3.2-5.5-6.7-6.1c-1-0.2-2.1-0.4-2.6,0.9c-0.5,1.2,0.2,1.8,1.1,2.4c3.3,2.2,2.2,5.4,0.1,8.1c-0.4,0.5-1,0.8-1.4,1.3
			c-0.9,1-1.8,1.2-3,0.5c-0.3-0.2-0.7-0.3-1.1-0.4c-3.7-0.7-5.9-4.2-5-7.8c0.3-1.3,0.6-2.6,0.9-3.9c-1.6-1-3,0.3-4.5,0
			c1.7-0.9,3.2-2,5.2-2c1.1,0,2.1-0.6,3.2-1c1.2-0.5,2.3-1.1,3.5-1.5c0.7-0.2,1.6-0.6,2.1-0.3c1.7,0.9,3.7,0.8,5.3,1.8
			c1.6,1,3,2.4,4.3,3.7c0.6,0.6,0.8,1.5,1,2.3c0.3,1.4,0.4,2.8,0.6,4.3c0.2,1.3,0.4,2.7,0.6,4.1c1.8,0.4,3.7,0.7,5.4-0.1
			c2.2-1,4.2-0.2,6.2,0.4c0.9,0.3,1.8,0.5,2.7,0.7c2.8,0.5,5.7,0.8,8.5,1.3c0.5,0.1,0.9,0.2,1.4,0.3c3.4,0.6,3.7,0.9,4.3,4.3
			c0.8-0.1,1.7-0.1,2.5-0.4c1.5-0.5,3-1.2,4.5-1.5c1.2-0.3,2.5-0.1,3.7-0.2c0.6,0,1.3,0,1.9,0c2.8,0.3,5.5,0.7,8.3,1.1
			c0.5,0.1,1,0.6,1.2,1.1c0.7,1.5,1.8,2.6,3.5,3.1c0.9,0.3,1.5,0.9,1.6,1.9c0.1,1.1,0.8,1.7,1.8,1.9c0.2,0,0.3,0.1,0.5,0.1
			c0.7,0.4,1.4,0.9,1,1.9c-0.3,0.8-1.3,1.2-2.2,0.6c-3.7-2.2-8-2.6-12.1-3.6c-4.6-1.2-9,0-12.9,2.8c-2,1.4-3.9,3.1-5.8,4.7
			c-0.1,0.1-0.2,0.3-0.3,0.3c-3.5,1.1-5.4,4.3-8.5,6c-1.7,0.9-3.5,1.8-5.3,2.5c-3.2,1.3-6.5,1.9-9.7,3.1c-4.6,1.6-9.1,1.6-13.7-0.2
			c-2.8-1.1-5.8-1.7-8.6-2.8c-2.4-0.9-4.7-2.2-7.1-3.3c-1.1-0.5-2.2-1-3.3-1.4c-0.3-0.1-0.7,0.1-1.4,0.2c0.3,0.7,0.5,1.3,0.7,1.9
			c0.6,1.7,0.5,2.3-1.1,3.2c-3.8,2.1-7.5,4.2-11.9,4.7c-0.9,0.1-2.2,0.1-1.9,1.8c1.5,0.6,3,0.5,4.4,0c3.5-1.3,7-2.6,10.5-4
			c1.2-0.5,2.2-1.3,3.3-1.9c1-0.5,2.1-0.9,3.1-1.4c1.6,3.3,1.4,4-1.3,5.8c-1.4,0.9-2.9,1.2-4.4,1.7c-2.7,0.8-5.4,1.6-7.8,3.2
			c-0.1,0.1-0.2,0.3-0.4,0.6c0.4,0.5,0.7,1.2,1.2,1.5c1.6,0.9,2.4,2.3,3.3,3.7c3.1,4.4,0.1,11.8-5.4,13.1c0.1-0.6,0.1-1.2,0.4-1.5
			c0.6-0.8,1.2-1.5,1.9-2.2c1.5-1.7,1.9-3.8,2-6c0-1.4-0.9-2.5-1.9-3.4c-3.4-2.8-7.2-4.8-11.8-4.6c-1.3,0.1-2.6-0.1-3.8,0
			c-1.4,0.2-2.8,0.6-4.1,1c-0.3,0.1-0.6,0.5-0.8,0.4c-1.9-0.5-3.6,0.7-5.3,0.7c-2.4,0-4.6,0.4-6.8,1.3c-2.5,1-4.5,0.2-5.5-2.1
			c0.6-1,1.6-1,2.5-1c1.3-0.1,2.5-0.2,3.8-0.3c0.8-0.1,1.7-0.1,2.3-0.6c1.9-1.5,4-2.2,6.1-3.1c0.4-0.2,0.7-0.6,1.4-1.2
			c-1,0-1.6-0.1-2.1,0c-2.3,0.6-4.6,1.2-6.9,1.9c-0.8,0.2-1.6,0.8-2.3,1.2c-1.4,0.7-2.8,0-3-1.5c-0.1-0.9,0.3-1.5,1.3-1.7
			c5.2-0.9,10.3-2.3,15.5-2.7c4-0.3,7.8-1.6,11.8-2c2.2-0.2,4.4-1.4,6.4-2.4c1.8-0.9,3.4-2,5.1-3.1c0.3-0.2,0.5-0.6,0.8-1
			c-0.4-0.2-0.6-0.5-0.9-0.5c-2.6-0.5-5.2-0.9-7.5-2.3c-0.3-0.2-0.6-0.2-0.9-0.2c-2.4,0-4.8,0.2-7.2,0c-3.9-0.3-7.5,1-11.2,1.8
			c-2.7,0.6-5,2-7.5,3c-0.3,0.1-0.5,0.4-0.7,0.6c-2.6,3.4-5.2,6.9-7.8,10.3c-0.5,0.7-0.9,1.5-1.1,2.3c-1.7,5.7-3.3,11.5-5,17.3
			c-0.3,1-0.5,1.9,0.3,2.7c0.2,0,0.5,0.1,0.6,0c3.4-1.6,7.1-0.9,10.6-1.6c1.2-0.3,2.9,0.4,4.1,1c3,1.6,5.7,3.6,7.5,6.6
			c1.3,2.2,1,4.4,0.1,6.6c-0.2,0.4-0.9,0.6-1.4,0.9c-0.3-0.5-0.6-1-0.8-1.5c-0.1-0.3,0-0.6,0.1-0.9c0.5-3.3-0.7-5.5-3.8-6.8
			c-0.7-0.3-1.3-0.9-2.1-1.1c-0.5-0.2-1.3-0.3-1.7-0.1c-0.3,0.1-0.6,1-0.4,1.4c1.3,3.7,0.1,7.1-1.2,10.5c-0.1,0.3-0.2,0.6-0.3,0.9
			c-1.8,3.4-3.5,4.6-7.6,3.1c-2.8-1-4.7-3-6.2-5.4c-1.1-1.8-0.6-3.2,1.4-4c0.7-0.3,1.3-0.7,2-0.9c0.6-0.2,1.3-0.2,2.2-0.3
			c-0.2,1.4-0.9,2-1.8,2.4c-1.7,1-2,2.8-0.7,4.3c1.9,2.1,6.3,1.7,7.4-0.9c0.8-1.8,1.3-3.8,1.5-5.7c0.3-2.9-0.9-4.1-3.8-4.3
			c-0.6,0-1.3,0-1.9-0.1c-1.5-0.3-2.7,0-3.6,1.2c-0.7,1-1.7,1.4-2.9,1.3c-1.4-0.1-2.3,0.7-3.4,1.5c-2.1,1.5-4.4,2.9-6.7,4
			c-2.1,1-4.3,1.3-6.7,1.3c-2.5-0.1-5.1,0.2-7.6,0.4c-0.6,0-1.1,0.3-1.7,0.5c0,0.3,0,0.4,0,0.5c2,1.8,1.3,3.6,0.1,5.5
			c-1.9,3.2-4.2,6-7.2,8.3c-5.7,4.3-11.4,8.7-16.3,14c-0.4,0.4-1,0.8-1.1,1.2c-0.8,2.5-2.6,4.2-4,6.2c-2.4,3.2-3.9,6.8-4.9,10.6
			c-0.3,1-0.8,1.8-1.2,2.7c-1.7-0.2-2.1-1-1.7-2.2c0.5-1.8,1.1-3.6,1.9-5.4c0.6-1.4,1.1-2.6-0.6-3.7c-0.4-0.3-0.4-1.8-0.1-2.6
			c0.7-1.8,1.6-3.7,2.7-5.3c3-4.7,6.2-9.3,9.3-13.9c0.4-0.7,1-1.3,1.6-1.8c2.6-2.1,4.8-4.7,6.8-7.3c1.3-1.7,2.8-3.3,4.1-5
			c0.3-0.4,0.6-0.9,1.2-1.7c-0.9-0.1-1.5-0.4-2-0.3c-3.7,0.8-7.5,1.7-11.1,2.7c-1.2,0.3-2.4,1-3.3,1.8c-3.4,2.9-6.6,6-8.4,10.3
			c-0.9,2.2-1.8,4.4-2.4,6.7c-0.4,1.3-0.2,2.7-0.4,4c-0.2,1.1-0.4,2.2-0.9,3.1c-0.1,0.3-1,0.7-1.3,0.6c-0.5-0.2-1.1-0.9-1.1-1.3
			c0-1.7,0.3-3.5,0.5-5.2c0.1-0.7,0.7-1.5-0.2-2.3c-1.5,1.4-2.1,3.1-2.4,5c-0.3,2.4-0.5,4.8-0.4,7.2c0.1,5,0.2,10.1,0.5,15.1
			c0.1,1.1,0.6,2.2,0.9,3.3c0.2,0,0.4-0.1,0.6-0.1c-0.1-1.7-0.2-3.5-0.3-5.2c-0.1-1.8-0.1-3.7,0-5.5c0.1-1.8-0.3-3.6,0.3-5.3
			c0.2,0,0.3,0,0.5-0.1c0.2,0.5,0.5,0.9,0.5,1.4c0.1,2.7,1.2,5.3,0.6,8.1c1,5.5,1.9,11,3.1,16.5c1.1,5.2,1.4,10.3,0.1,15.4
			c-0.7,2.7-1.2,5.4-2.1,8c-0.8,2.1-1.2,4.7-3.2,6.3c-0.2,0.2-0.4,0.5-0.5,0.8c-0.3,2.4-1.9,4.2-3.2,6.1c-1.5,2.2-2.9,4.4-4.6,6.5
			c-2.6,3.1-5.3,6-9.2,7.8c-3.9,1.8-7.5,4.1-11.3,6.3c-1.7,1-3.2,2.3-5.3,2.7c-0.8,0.2-1.5,1.1-2,1.9c-2.5,4.4-4.8,8.8-7.3,13.2
			c-3.6,6.6-4.4,13.6-3.5,20.9c0.6,5.3,2.9,9.9,5.9,14.2c1.8,2.5,3.6,4.9,5.5,7.3c0.3,0.4,0.8,0.7,1.4,1.2c0.5-0.8,1.1-1.4,1.3-2.1
			c0.9-2.8,2.1-5.6,2.5-8.5c1-6.9,0.1-13.5-3.4-19.6c-1.5-2.7-3.3-5.3-4.9-7.9c-0.3-0.5-0.7-1.1-1.2-1.9c2.2,0.6,3.6,1.6,4.7,3.1
			c2,2.8,4.7,5,5.7,8.5c0.4-2.2,0.1-3-1.1-4.4c-0.6-0.6-1-1.4-1.4-2.2c-0.8-1.6-1.6-3.3-2.3-4.9c-0.2-0.4-0.3-0.9-0.2-1.3
			c0.4-1.5,0-2.8-0.7-4.1c-1-1.8-0.1-5.7,1.5-7c0.5-0.4,1.3-0.5,2-0.8c0.4,1,0.7,1.8,1.1,2.6c0.4,0.8,0.8,1.5,1.1,2.2
			c0.2,0,0.3-0.1,0.5-0.1c0.1-0.3,0.2-0.7,0.2-1c0-2.6,0-5.3,0.1-7.9c0-1.8,0.3-1.9,2.5-1.5c0.3,2.2,0.4,4.4,0.8,6.6
			c0.2,1.3,0.5,2.7,1.2,3.9c1.9,3.5,2.3,7.4,3.2,11.2c1,4.4-0.1,8.7,0,13c0,0.2,0,0.5-0.1,0.7c-1.2,2.9-1.5,6-1.5,9.2
			c0,0.3-0.1,0.7-0.2,0.9c-2,2.8-1.4,6.2-1.9,9.3c-0.5,2.7-0.9,5.5-1.5,8.2c-0.2,1.2-0.1,2.1,1,2.7c2.2,1.3,4.4,2.5,6.5,3.8
			c1.3-0.4,1.5-1.4,1.7-2.3c0.3-1.7,0.7-3.5,0.8-5.2c0.2-4.3,2.4-7.7,5.3-10.7c0.1-0.1,0.2-0.3,0.4-0.3c3.5-1.6,7.1-3.4,11.1-2.4
			c5.1,1.2,9.3,3.9,12.2,8.3c1.6,2.5,2.6,5.1,0.6,8c-0.9,1.4-1.5,3-2.3,4.5c-1.1,2-2.9,2.8-4.8,1.6c-2.6-1.6-5.5-3.1-7-6
			c-0.5-1-0.8-2.2-0.9-3.4c-0.1-0.7,0.1-1.5,1.1-1.6c0.8-0.1,1.5,0.3,1.6,1.1c0.3,2.8,2.4,4.2,4.4,5.7c1.6,1.3,2.6,1,3.8-0.7
			c1.1-1.6,1.7-3.5,1.5-5.4c-0.1-0.9-0.3-2-0.9-2.6c-3-3.5-6.5-5.9-11.4-6c-2.7,0-4.7,1.4-6.9,2.5c-0.1,0-0.1,0.1-0.2,0.2
			c-1.4,2.7-3.3,5.3-3.4,8.5c0,0.4,0,0.8-0.1,1.1c-1.4,3.1-1.2,6.4-0.8,9.6c0.1,0.9,0.6,1.8,0.9,2.7c1.4,4.5,4.9,7.8,6.9,12
			c0.6,1.3,1,2.7,1.4,4c0.1,0.3,0,0.7,0.2,0.9c1.4,1.7,1.1,3.8,1,5.8c0,3.3-0.3,6.7-0.5,10c0,0.3-0.1,0.7-0.1,1
			c1.1,6-0.5,11.7-2.1,17.4c-1.3,4.6-1.8,9.4-2.6,14.1c-0.1,0.7-0.2,1.4-0.4,2.1c-1.2,4.7-0.5,9.5-0.1,14.3c0.3,3.1,1.9,5.9,3.6,8.5
			c0.4,0.6,1,1.1,1.2,1.8c1.2,3.9,4.3,6,7.3,8.2c1.8,1.3,3.6,2.7,5.3,4c1.9,1.5,4,2.4,6.4,2.5c3.4,0.2,6.8,0.1,10.3,0.2
			c0.2,0,0.5,0,0.7,0c3,0.2,3,0.1,2.1-2.8c-1.9-6-2.4-12-1.1-18.2c0.6-2.8,2.1-4.8,4.2-6.5c1-0.8,2.2-1.3,3.3-2
			c0.3-0.2,0.7-0.4,1.1-0.4c3.8-0.1,7.8-0.1,11.2,1.7c3,1.6,5.5,4.1,6.4,7.7c0.6,2.3-0.3,4.1-2.4,5.1c-2.3,1.1-4.7,1.5-7.2,0.6
			c-1.3-0.5-2.7-0.9-4.1-1.4c-0.6-0.2-1.3-0.4-0.8-1.5c0.6,0.1,1.2,0.2,1.7,0.4c2.3,0.7,4.7,0.9,7.1,0.2c2.3-0.7,2.9-2.1,1.6-4.2
			c-1.5-2.4-3.6-4.1-6.5-4.6c-1.7-0.3-3.5-0.5-5.2-0.5c-2.9,0.1-5.6,2.5-5.9,5.4c-0.4,4.6-0.6,9.3,0.3,13.9c0.6,3.1,2.2,5.8,4.3,8.1
			c0.4,0.5,0.8,1,1.2,1.5c3,3.1,6.4,5.5,10.7,6.4c0.8,0.2,1.5,0.5,2.2,0.8c0.7,0.3,1.4,0.8,2.2,1c5.4,1.3,9.5,4.8,13.8,7.9
			c0.8,0.6,1.7,1.1,2.6,1.7c2.4,1.4,4.1,3.5,5.2,6.1c1.6,3.7,3.3,7.4,4.9,11.1c0.2,0.4,0.2,0.8,0.3,1.1c0.3,3,1.7,5.6,3.2,8.2
			c2.3,3.9,5.6,6.9,9.5,9.2c2.9,1.7,5.7,3.4,8.7,5c0.7,0.4,1.6,0.4,2.6,0.6c0.1-1.8-1.2-2.3-2-3c-5.4-4.4-9.4-9.9-12.3-16.3
			c-1.4-3.3-2.2-6.6-3-10c-0.8-3.2-2-6.2-3.2-9.3c-1.2-3-3.5-5.1-6.4-6.5c-2-0.9-3.8-2-5.7-3c-0.6-0.3-1.3-0.6-1.2-1.7
			c1.8,0,3.4,0,5.1,0.9c2,1.2,4.1,2.2,6.2,3.2c3.3,1.7,5.3,4.5,6.5,7.9c0.1,0.2,0.1,0.3,0.2,0.4c1.7,1.8,2.3,4,2.3,6.3
			c0,0.1,0.1,0.3,0.2,0.4c0.1,0.1,0.3,0.2,0.7,0.4c0.1-1.4,0.3-2.7,0.2-3.9c-0.2-2.2-0.7-4.4-1.1-6.6c-0.7-3.6-2.9-6.4-5.3-9
			c-0.4-0.5-0.9-0.9-1.1-1.5c-0.1-0.3,0.1-0.9,0.3-1.2c0.1-0.2,0.9-0.1,1,0.1c2,2.6,5,4.4,6.7,7.4c2.4,4.4,3.4,9.1,4.3,13.9
			c0.7,3.6,1.2,7.2,2.7,10.7c0.7,1.5,0.7,3.2,1.3,4.8c1.6,3.8,4.2,6.8,6.8,9.8c1.6,1.9,3.9,2.9,6.4,3c4.3,0.2,8.7,0.7,12.9-0.5
			c3.8-1.1,7.7-1.9,11.5-3.1c3-1,6.1-1.8,9.2-2.5c6.6-1.4,13.2-1.2,19.8-0.2c0.7,0.1,1.4,0.2,2.5,0.4c-0.5-0.6-0.7-1-1-1.2
			c-3.6-3.6-7.9-6.2-12.7-8c-2.8-1.1-5.9-0.4-8.8-0.3c-0.6,0-1.1,0.2-1.7,0.2c-5.1-0.3-10,0.7-14.9,2c-2.3,0.6-4.4,1.6-6.8,2.6
			c0.1-0.3,0-0.9,0.3-1.1c1.3-1,2.6-2.2,4.1-2.8c5.6-2.5,11.5-4.1,17.6-4.2c4.2-0.1,8.5-0.8,12.6,0.8c2.1,0.8,4.2,1.7,6,3.2
			c0.4,0.4,0.9,0.6,1.4,0.9c1.8,1.2,3.6,2.4,5.4,3.5c0.4,0.2,0.8,0.4,1.4,0.7c0.1-0.7,0.1-1.2,0.1-1.8c0.2,0,0.5-0.1,0.7,0
			c1.4,0.3,2.5,1,3.3,2.2c0.3,0.4,0.5,0.9,0.9,1.1c4.7,3.6,7.5,8.9,11.6,13c3.9,4,8.5,6.9,13.4,9.5c3.4,1.8,6.8,1.5,10.3,1.9
			c3.5,0.4,6.7-0.5,10-0.9c2.1-0.2,4.3-1.3,6.2-2.4c5.5-3.1,10.4-7.1,15.3-11.1c3.1-2.5,5.3-5.7,8-8.5c1.9-2.1,3.5-4.5,5.6-7.3
			c-1.1-0.1-1.8-0.5-2.2-0.3c-2.4,1.1-4.8,1.9-6.6,4.1c-2.8,3.4-5.8,6.6-9.1,9.5c-4.2,3.7-9,6.5-14.6,7.9c-4,1-7.9,2-12,1.7
			c-1.8-0.1-3.7-0.2-5.5-0.5c-1.1-0.1-2.1-0.4-3.1-1.4c1.6-0.8,3.4,0.8,4.7-0.9c-0.2-1-1-1.1-1.8-1.1c-4.4-0.2-8.2-2-11.6-4.5
			c-1.2-0.9-2.4-1.6-3.5-2.5c-0.4-0.3-0.6-0.9-0.9-1.4c0.1-0.2,0.3-0.3,0.4-0.5c1,0.4,2,0.8,3,1.3c1.6,0.8,3.1,1.7,4.7,2.4
			c4.9,2.2,10.1,2.7,15.4,2.3c3-0.3,5.8-0.8,8.6-1.7c0.3-0.1,0.8,0.1,1.1,0c0.6-0.1,1.3,0,1.8-0.3c3.8-2.4,7.5-4.9,11.2-7.4
			c0.9-0.6,1.6-1.4,2.3-2.1c2.1-2,4.1-4,6.2-5.9c0.5-0.5,1.2-0.8,1.9-1c1.1-0.4,2.2-0.8,3.1-1.6c0.6-0.6,1.9-0.6,2.9-0.6
			c1.2,0,2.3,0.5,3.5,0.7c1.9,0.3,3.7-0.4,4.8-2.2c1.5-2.4,3.6-4.5,5.4-6.6c1.5-1.7,3.2-3.2,4.4-5.3c1-1.7,2.5-3.6,4.8-4.1
			c0.2,0,0.3-0.1,0.4-0.2c2.4-2.8,6.4-3.2,9-5.8c0.2-0.2,0.4-0.3,0.6-0.4c3.6-1.3,7.1-3,10.8-3.7c4.9-1,9.8-2.1,14.9-1.8
			c1.6,0.1,3.3-0.2,4.7,0.3c1.9,0.6,3.6,0.1,5.3-0.4c0.1,0,0.1-0.1,0.2-0.1c3.2,0.3,4.4-2,5.7-4.2c1.2-2,2.5-3.9,3.7-5.9
			c0.3-0.4,0.5-0.8,0.7-1.3c1.7-4.9,5.5-8.1,9.4-11.2c2.6-2,5.1-4.1,7.7-6.1c1.1-0.8,2.3-1.4,3.4-2.1c1.4-0.9,3-1.6,4.3-2.5
			c2-1.4,3.5-3.3,4.2-5.7c0.4-1.2,0.7-2.5,2-3.1c0.1-0.1,0.3-0.2,0.3-0.3c0.3-1.7,1.6-2.2,3-2.6c-0.1-2.1-0.2-4.1-0.4-6
			c-0.2-1.5-1-1.9-2.4-1.1c-0.7,0.5-1.3,1.1-2,1.7c-2.1,2.1-4.6,3.5-7.4,4.6c-5.1,2.2-10.5,4.2-12.9,10c-0.1,0.2-0.3,0.4-0.4,0.5
			c0,0-0.1,0-0.3,0.1c0.5-3.4,1.4-6.4,4.5-8.4c2.8-1.8,5.6-3.7,8.4-5.5c0.3-0.2,0.7-0.3,1-0.6c0.7-0.6,0.6-1.3-0.3-1.6
			c-0.8-0.2-1.6-0.2-2.4-0.4c-4.3-0.6-6.9-4-6.3-8.3c0.2-1.3,0.5-2.5,0.9-3.7c0.1-0.5,0.5-1,0.9-1.3c0.9-0.9,2-1.6,2.9-2.5
			c1.4-1.3,2.8-1.3,4.4-0.4c3.5,2,4.2,3.7,0.4,6.6c0.2-0.2,0.3-0.4,0.5-0.6c0.7-0.6,1.2-1.3,0.6-2.3c-0.5-0.9-1-1.8-2.2-2
			c-2.1-0.3-3.7,0.3-4.8,2.2c-1.4,2.3-1,4.8-0.4,7.2c0.3,1.2,1.4,2.1,2.9,2.2c2.7,0.3,5.4,0.6,8.1,0.8c1.4,0.1,2.4-0.6,3-1.9
			c0.3-0.8,0.7-1.6,1.2-2.3c0.7-1.1,0.6-2.1,0.5-3.4c-0.3-3-0.2-6.1-0.1-9.1c0.2-3.2,1.1-6.3,2.5-9.2c0.2-0.5,0.4-1.1,0.8-1.4
			c3-3.1,6-6.2,9.2-9c1.3-1.2,3.1-1.9,4.6-2.9c0.5-0.3,1.2-0.8,1.3-1.3c0.5-1.9,2-2.7,3.3-3.9c1.7-1.6,3-3.5,4.6-5.2
			c0.9-0.9,1.1-2.6,2.8-2.7c0.2,0,0.3-0.5,0.5-0.8c1.2-2.1,2.3-4.2,3.5-6.2c0.3-0.5,0.7-0.8,1.2-1.2c1.8-1.4,1.8-1.4,2.1-3.7
			c0.7,0,1.6,0.4,2.1-0.7c1.9-4.3,3.2-8.7,3.2-13.4c0-0.8-0.2-1.8-0.7-2.5c-0.8-1.1-1.3-2.2-1.4-3.5c-0.5-3.7-2.1-6.9-4.3-9.8
			c-1.8-2.4-4-4.6-5.9-7c-1.8-2.2-3.5-4.5-5.3-6.8c-0.8-1-1.5-2.1-2.3-3.1c-1.7-2.2-2.8-4.6-3.3-7.3c-0.4-1.9-1.1-3.8-1.6-5.7
			c-0.5-2.4-0.8-4.9-1.3-7.3c-0.1-0.7-0.4-1.4-0.6-2.4c-0.7,0.4-1.1,0.6-1.5,0.9c-0.9,0.7-1.9,0.7-2.9,0.1c-1.5-0.9-3.2-1.6-4.5-2.8
			c-1.7-1.5-3-3.5-3.5-5.8c-0.6-3.4-1.2-6.9-1.7-10.4c-0.2-1.2-0.1-2.4-0.1-3.6c0-0.6,0-1.3,0-1.9c0-1.8,0-3.7-0.2-5.5
			c-0.2-2.1-0.2-4.3,0.1-6.4c0.3-2.5,0.6-5.1,0.8-7.6c0.1-1.1-0.1-2.2-0.1-3.3c0-0.7,0.2-1.4,0.3-2.5c0.8,0.6,1.3,0.9,1.7,1.2
			c1,0.8,1.9,1.8,3,2.3c1.5,0.7,2.1,1.6,1.9,3.2c-0.1,0.7-0.2,1.4-0.2,2.1c0,0.8,0.2,1.6,0.3,2.6c1.4-0.6,1.5-1.6,1.5-2.5
			c0-0.6,0-1.5,0.9-1.4c0.5,0,1.1,0.5,1.5,1c0.3,0.5,0.5,1.2,0.5,1.8c0.1,2.1,0.1,4.1,0.1,6.2c0,0.1,0,0.2,0,0.2
			c0.4,3.4,0.7,6.9,1.4,10.3c0.3,1.8,1.4,3.4,2,5.1c0.3,0.7,0.5,1.4,0.8,2.2c-2.8,1-5.5-0.4-6.1-3c-0.3-1.4-0.7-2.7-1.2-4.4
			c-1.3,1.4-1.6,2.5-0.9,3.8c1.5,2.7,2.9,5.5,5.8,7.2c0.7,0.4,1.3,1.2,2,1.8c1.5-0.8,2.4-2.3,2.4-3.6c0-3,1.7-4.9,3.3-7
			c0.4-0.6,0.9-1.2,1.6-1.5c2.7-1.4,3.8-4,5-6.5c1.4-3,0.6-5.8-1.2-8.4c-0.2-0.3-0.6-0.7-0.9-0.8c-1.4-0.1-2.2-1.1-3.3-1.7
			c-3-1.5-5.5-3.4-8-5.6c-0.9-0.8-2-1.3-3-1.8c-5.7-2.8-10.7-6.6-16-10.1c-2.3-1.5-4.7-3-7.3-4.6c-0.4,0.6-1,1.1-1.3,1.7
			c-1.5,2.7-3,5.4-5.3,7.6c-2,1.8-4.3,3-6.7,4.1c-0.4,0.2-1,0-1.6,0c-1.3-0.1-2.6-0.5-3.8-0.3c-2.1,0.5-3.8-0.1-5.5-1.4
			c0.6-0.9,1.4-0.6,2.2-0.4c3.4,0.8,6.3-0.2,9-2.1c2.4-1.6,4.1-3.7,5.1-6.4c1.3-3.5,2.8-6.8,2.8-10.6c0-2.7-0.2-5.4-0.6-8.1
			c-0.2-1.1-0.8-2.3-1.4-3.3c-2-3-2.3-6.5-3-9.8c-0.4-1.9,0.3-4,0.2-5.9c-0.1-1.6-0.5-3.3-0.9-4.9c-0.1-0.3-0.4-0.8-0.7-0.9
			c-3.8-1.6-7.1-4.1-11.4-4.6c-1.4-0.1-2.9-0.8-3.9-1.7c-2.2-1.9-5-3.1-7-5.3c-0.1-0.1-0.2-0.2-0.4-0.3c-4.4-1.5-6-5.7-8.8-8.8
			c-0.4-0.4-0.4-1.1-0.6-1.7c2.3-0.5,2.5-0.4,5.4,2.2c0.5-0.4,1-0.9,1.5-1.3c2.1,1.1,4.2,2,5.6,4.1c0.4,0.7,1.4,1.1,2.1,1.5
			c1.2,0.7,2.5,1.4,3.8,2.1c1.4,0.8,2.7,1,3.9-0.4c-0.4-1.2-1.4-1.9-2.4-2.6c-0.9-0.6-1.6-1.2-1.9-2.3c-0.2-0.7-0.7-1.5-1.4-1.9
			c-2.3-1.3-4.5-2.7-7.1-3.5c-4.9-1.4-10-2.3-15-3c-1-0.1-2-0.5-3-0.6c-0.6-0.1-1.3-0.2-1.9,0c-3.2,1.2-6.3,0.6-9.5,0.1
			c-2.6-0.4-5.1-1.3-7.8-0.6c-0.1,0-0.2,0-0.2,0c-4.5-1.4-9.5-1.9-12.7-6c-0.5-0.6-1.2-1.1-1.7-1.7c-2-1.9-3.1-4.2-3.7-6.8
			c-1.3-6-2.9-11.9-4.3-17.9c-0.7-2.9-2.8-5-4.4-7.3c-0.6-0.8-1.2-1.5-1.9-2.2c-3.3-3.9-7.5-5.5-12.6-4.7c-1.7,0.3-3.4,0-5.2,0.6
			c-1.9,0.6-3.8,1.1-5.6,2c-2.7,1.2-5.6,1.6-8.5,2.1c-1.1,0.2-2.2,0.4-3.3,0.7c-1.7,0.4-3.4,0.8-5.1-0.2c-0.7-0.4-1.7-0.6-2.4,0.7
			c3.2,1.5,6.3,3,10,2.7c2.5-0.2,5.1-0.5,7.4-1.6c1-0.5,2.3-0.5,3.5-0.5c2.7,0.1,5.2-0.2,7.8-0.9c2.7-0.8,5.4,0,8,0.8
			c0.2,0.1,0.4,0.4,0.9,1.1c-1.2-0.1-1.8,0-2.4-0.2c-1.7-0.4-3.3-0.3-4.9,0.3c-4.7,1.7-9.5,3.5-14.5,3.9c-0.8,0.1-1.5,0.5-2.3,0.7
			c-1.4,0.5-2.8,0.6-4.2,0.1c-0.8-0.3-1.7-0.2-2.6-0.4c-0.9-0.2-1.9-0.4-2.6-0.9c-1.2-0.7-2.3-0.9-3.9-0.5c0.3,0.6,0.5,1.2,0.8,1.5
			c1.4,1.4,2.9,2.7,4.3,4.2c0.5,0.5,0.9,1.1,1,1.8c0.6,3.3,1.9,6.3,4.1,8.8c1.5,1.7,3.6,2.9,5.4,4.2c0.8,0.6,1.8,1,2.6,1.7
			c0.4,0.3,0.5,0.8,1,1.6c-5.2-1.1-8.9-4.1-13.4-6.1c-0.3,0.5-0.7,1.1-1.1,1.7c-1.7,2.4-3.5,3.9-7.6,2.6c-4.6-1.5-7.9-4.4-10.6-8.2
			c-1.3-1.9-1.8-4.2-1.6-6.6c0.1-1.4,0.9-1.9,2.1-2.3c2.1-0.6,6.5,1.7,7.1,3.8c0.2,0.6,0,1.3,0,2c-1.5,0-1.7-1-2.3-1.7
			c-1-1.1-1.8-1.4-2.7-0.8c-0.8,0.5-1.1,1.7-0.5,2.8c2,3.2,4.3,6.2,8.2,7.4c3,0.9,4.4,0,5.1-3c0.4-1.6,0.8-3.1,0.8-4.7
			c0.1-2.9-1.2-5.3-3.4-7.1c-2.5-2-5.1-3.8-7.8-5.6c-2.1-1.4-4.5-2.5-6.5-4c-1.7-1.3-3.8-1.7-5.5-3.2c-2.3-2-4.4-3.9-5.6-6.7
			c1.1-1.4,1.6-1.3,2.9,0c1.4,1.4,2.8,2.6,4.2,3.9c0.7,0.6,1.5,0.9,2.4,0c-0.9-1.6-1.8-3.1-2.6-4.7c-0.2-0.3-0.4-0.7-0.6-1.1
			c-0.3-0.9,0.5-1.7,1.3-1.3c0.7,0.3,1.4,0.9,1.7,1.5c0.5,1.3,1.3,2.3,2.5,3.1c0.6,0.4,0.9,1.1,1.4,1.6c0.5,0.5,1.1,1,1.7,1.2
			c1.2,0.3,2.1-0.7,1.5-1.8c-0.4-0.7-1.1-1.3-1.8-1.8c-1.1-0.7-1.4-1.4-0.5-2.8c1.5,0.6,3.1,1.1,4.6,1.8c3.8,1.8,7.8,2.3,11.9,1.5
			c2.3-0.4,4.6-0.5,6.7-1.7c3.4-2,6.7-4,10-6.1c1-0.6,2-1.3,3-1.9c0.7-0.4,1.6-0.6,2.1-1.1c1.5-1.6,3.6-2,5.6-2.3
			c2.8-0.4,5.7-0.6,8.6-0.8c0.6-0.1,1.3,0.1,1.9-0.1c2.6-0.7,5.2,0,7.8,0.1c2.7,0.1,5.3,0.7,8.2,1.1c-1.3,0.8-2.7,0.7-4,0.8
			c-2.5,0.2-4.9,0.7-7.4,0c-0.5-0.1-1.4,0.3-1.8,0.7c-0.7,0.8-1.5,1-2.5,1.3c-1.8,0.5-3.5,0.9-5.2,1.6c-2.1,0.8-4.1,1.9-6.1,2.9
			c-1.4,0.7-2.8,1.5-3.9,3.2c2.6,0.3,4.9,0.8,7.2,0.5c0.8-0.1,1.8-0.2,2.5,0.1c3,1.2,5.9,2.5,8.8,3.8c2.3,1,3.8,2.8,4.6,5.2
			c0.9,2.9,2.2,5.7,2.6,8.7c0.4,2.5,1.7,5,0.3,7.6c-0.3,0.6-0.1,1.6,0.1,2.3c0.6,2.3,1.2,4.6,1.9,6.9c0.1,0.5,0.6,0.9,1.1,1.6
			c0.9-2,0.8-3.6,0.4-5.3c-0.8-3-0.1-5.9-0.1-8.9c0.2,0,0.3-0.1,0.5-0.1c0.1,0.4,0.3,0.7,0.4,1.1c0.2,1.7,0.3,3.5,0.4,5.2
			c0.3,5.5,3.2,9.6,7.2,13c1.5,1.3,3.3,2.3,5,3.3c0.5,0.3,1,0.5,1.6,0.6c1.6,0.1,3.1,0.7,4.6,1.3c1.7,0.7,3.7,0.8,5.6,1.2
			c0.8,0.2,1.7,0.4,2.5,0.7c1.5,0.6,3.1,0.7,4.7,0.7c3.3,0,6.7-0.2,10,0.8c4.3,1.3,8.7,2.1,13,3.3c1.9,0.5,3.7,1.5,5.5,2.2
			c0.9,0.4,1.8,0.7,2.7,0.9c2.5,0.3,4.4,1.6,6.2,3.3c2.7,2.5,5.4,5,8.1,7.5c0.1,0.1,0.1,0.1,0.2,0.2c2.5,1.3,4.2,3.5,6,5.6
			c2.2,2.6,5.3,3.3,8.7,2.4c1.3-0.3,2.5-1.2,3.9-0.4c0.2,1-0.3,1.4-1,1.7c-3.1,1.3-6.3,1.6-9.5,0.4c-0.4-0.2-0.9-0.2-1.9-0.3
			c1.3,2,2.8,2.7,4.5,3.3c2.2,0.8,4.5,1.7,6.7,2.6c0.3,0.1,0.7,0.2,0.8,0.5c1.2,1.9,3.5,2.5,4.8,4.2c3.6,4.5,6.8,9.2,8.5,14.8
			c0.1,0.3,0.2,0.6,0.3,0.9c0.8,3.1,1.5,6.2,2.3,9.3c0.2,0.9,0.7,1.8,1,2.7c0.4,1.3,0.9,2.5,1.2,3.8c0.7,2.7,1.8,5.1,4.2,6.7
			c1.6,1.1,3.4,1.4,5,0.2c1.7-1.2,3.3-2.6,2.9-5.1c-0.4-2.7-1.5-4.9-3.8-6.4c-0.9-0.6-2-1.2-2.9-0.4c-0.6,0.5-0.9,1.7-0.8,2.6
			c0.2,1.2,0.8,2.4,1.3,3.7c-0.3,0.6-1,0.8-1.3,0.1c-0.9-1.8-1.9-3.6-2.2-5.5c-0.4-2.4,1.8-4,4.2-3.4c2.4,0.6,4.5,2.1,5.5,4
			c0.9,1.8,1.9,3.6,2.6,5.6c0.6,1.8,0,5-1.9,6c-1,0.6-2,1.4-3,1.9c-1.9,1-3.9,1-5.7-0.2c-2.1-1.4-4.1-3-6.1-4.6
			c-0.3-0.3-0.6-0.8-0.7-1.2c-1.7-4.3-2.6-8.8-2.6-13.5c0-1.4-0.7-2.9-1.2-4.3c-0.6-2-1.2-4-1.9-5.9c-0.5-1.3-1.3-2.5-2-3.8
			c-0.7-1.4-1.5-2.7-2.2-4.1c-0.6-1.2-1.5-2.2-2.6-3.1c-1,1-0.7,1.9-0.2,2.5c3,3.8,3.7,8.4,5,12.8c0.9,3,1.9,6.1,2.6,9.2
			c0.6,2.6,1,5.3,1.3,8c0.1,0.6-0.2,1.3-0.5,1.8c-0.5,0.8-1.2,1.2-1.9,0.3c-1-1.2-2.1-1.6-3.6-1.1c-1,0.3-1.8-0.2-1.9-1.2
			c-0.2-1.6-0.7-3.4-0.4-4.9c0.5-2.7-0.1-5.1-0.7-7.5c-1-3.8-2.1-7.5-3.2-11.3c-0.2-0.5-0.5-1-0.8-1.4c-1.8-2-4.1-3.3-6.7-4
			c-1.5-0.4-2.2,0.3-1.8,1.7c0.5,1.9,1.1,3.8,1.5,5.8c0.3,1.3,0.2,2.7,0.3,4.1c0.1,2.4,0.1,4.8,0.2,7.2c0.1,2.2,0.9,4.3,2.2,6
			c3.6,4.5,7.5,8.7,12.9,11.2c0.1,0,0.1,0.1,0.2,0.1c3.6,2.7,7.9,4.2,11.8,6.2c2.5,1.3,4.8,2.9,6.5,5.1c2,2.5,4.4,4.8,6.4,7.3
			c1.3,1.6,2.2,3.5,3.3,5.3c1.1,2,1.2,4.1,1,6.3c-0.1,0.6-0.3,1.4-0.7,1.7c-1.3,0.9-1.5,2.3-2.1,3.6c-0.8,1.6-1.8,3.1-3,4.3
			c-2.8,3-4.3,6.7-5.6,10.5c-1.2,3.6-1.6,7.4-0.9,11.1c0.4,2.2,0.9,4.5,2.2,6.5c1.8,2.7,3.3,5.5,5.6,7.7c1,1,1.6,2.3,2.4,3.6
			c2.6,4.3,6.2,7.9,7.5,13c0.5,1.9,1.5,3.7,2.4,5.5c1.5,2.8,2.7,5.6,2.7,8.8c0,0.5,0.3,0.9,0.4,1.4c0.2,1.2,0.6,2.3,0.5,3.5
			c-0.1,2.5-0.5,4.9-0.8,7.4c-0.1,1.1-0.4,2.2-0.4,3.3c0.1,3.8-1,7.4-1.3,11.2c-0.3,3.6-0.4,7.4,1.6,10.7c1.1,1.9,2.5,3.7,5.1,3.8
			c2.7,0.1,4.9-1,5.8-3.6c0.6-1.5,1-3,1.4-4.6c0.3-1-0.4-2.3-1.4-2.8c-1.1-0.6-1.8,0.1-2.5,0.9c-0.8,1-1.8,1.8-1.7,3.3
			c0,0.7-0.5,1.5-0.8,2.2c-1.3,0.1-2-0.3-2-1.5c0-0.7-0.1-1.5,0.3-2.1c1.2-2.1,2.5-4,3.7-6c0.6-0.9,1.5-1,2.3-0.6
			c1.4,0.7,2.9,1.4,4.1,2.4c0.6,0.4,1,1.4,1,2c-0.1,2.5-0.1,5.2-0.8,7.6c-0.5,1.7-2,3.3-3.3,4.6c-1.2,1.1-1.8,2.4-2.1,3.9
			c-0.5,2.3-1.1,2.8-3.5,2.5c-0.9-0.1-1.7-0.4-2.6-0.6c-0.9-0.2-1.8-0.5-2.9-0.8c-0.1,0.7-0.2,1.2-0.2,1.8c0,0.6,0,1.1,0,1.9
			c-0.4-0.7-0.6-1.3-1-1.7c-2.9-2.8-3.6-6.4-4.4-10.1c-0.5-2.3-1.4-4.5-2.1-6.8c-2.5,0.7-3.3,1.8-3.1,3.9c0.2,1.7,0.5,3.3,0.8,4.9
			c0.1,0.9,0.2,1.7,0.2,2.6c-0.2,5-0.4,10.1-0.5,15.1c0,2.4-0.3,4.8-1.5,7c-0.4,0.8-0.4,1.7-0.7,2.5c-0.4,1.1-1,2.2-1.4,3.2
			c-1,2.2-2.1,4.4-3,6.7c-0.6,1.5-1,2.8-2.8,3.2c-1.2,0.3-1.7,1.3-2.1,2.4c-0.9,2-1.9,3.9-2.9,5.8c-0.4,0.7-0.9,1.2-1.6,0.1
			c2.2-4,4.5-8,6.4-12.2c2.2-4.9,3.6-9.9,3.8-15.4c0.1-3.4-0.1-6.8,0.2-10.2c0.2-2.1-0.9-3.7-1.6-5.4c-0.1-0.4-1.1-0.8-1.5-0.7
			c-1,0.2-2.1,0.7-2.1,1.9c0,0.9,0.1,1.9,0.3,2.8c1.1,4.3,1.1,8.7,0.6,13.1c-0.5,4.5-1.3,9-2.9,13.3c-0.8,2.1-2,4-3.1,5.9
			c-0.3,0.5-0.8,1.1-0.9,1.7c-1.1,3.7-3.8,6.3-6.6,8.7c-1.9,1.6-2.5,3.6-3,5.8c-0.6,3.2-1,6.5-2,9.6c-1,3.2-2.5,6.2-3.9,9.2
			c-1,2.2-2.4,4.2-3.6,6.2c-0.3,0.5-0.6,1-1,1.3c-4.6,4.6-9.5,9-15.4,12c-4.3,2.2-8.1,5.1-11.6,8.5c-2.3,2.3-4.3,4.9-6.4,7.4
			c-0.8,0.9-1.6,1.9-2.6,2.6c0.2-1.8,1.7-2.7,2.6-4.1c0.9-1.3,1.7-2.7,2.7-4c1-1.3,2-2.5,3-3.7c-0.4-1.1-1.2-1-1.9-0.9
			c-0.8,0.1-1.6,0.3-2.4,0.3c-2.3,0.1-3.9,1.1-5,3.1c-1.2,2-2.5,3.9-3.8,5.8c-0.1,0.2-0.3,0.4-0.5,0.5c-4.1,3.3-8.3,6.5-12.4,9.8
			c-2.4,1.9-4.8,3.7-7.1,5.7c-2.3,2-4.4,4.2-5.9,6.9c-1.1,1.9-2.6,3.7-4.1,5.4c-1.7,2.1-2.5,4.4-2.4,7.1c0,0.6,0.4,1.3,0.8,1.9
			c0.4,0.6,1,1,1.5,1.6c1.1,1.3,2.3,2.2,4.2,1.7c2-0.5,3.9-1.3,4.8-3.2c0.4-0.7,0.3-1.9,0-2.7c-0.4-1.5-1.3-1.6-2.4-0.5
			c-0.2,0.2-0.4,0.5-0.7,0.7c-0.7,0.6-1.6,0.9-2.4,0.2c-0.8-0.6-0.7-1.4-0.2-2.1c0-0.1,0.1-0.2,0.1-0.2c0.8-1.4,0.9-3.6,3-3.6
			c2.2,0,4.2,0.9,5.6,2.7c0,0.1,0.1,0.1,0.1,0.2c2.1,3.1,2.2,3.9,0.4,7.2c-2.6,4.6-8,6.7-12.7,5.7c-2.5-0.6-4.2-2.3-5.2-4.6
			c-0.3-0.8-0.7-1.5-1.1-2.3c-0.2,0-0.4,0.1-0.6,0.1c-0.1,0.7-0.2,1.3-0.2,2c0,1.6,0,3.2,0,4.7c0,1-0.2,2.1-0.1,3.1
			c0.1,2.3-0.8,4.2-2.3,6c0-1-0.2-2.1,0-3.1c0.6-2.7,0.4-5.4-0.5-8c-0.9-2.8-0.8-5.7-0.5-8.6c0.1-0.7,0.2-1.5,0.7-2
			c1.4-1.8,1.9-4.2,4.2-5.4c0.4-0.2,0.7-0.8,1-1.3c1.3-2.8,3.3-5.1,5.6-7.1c1.7-1.5,3-3.2,4.1-5.5c-0.6,0-1.1-0.2-1.5,0
			c-1,0.4-1.9,0.8-2.8,1.3c-3.6,1.9-7.5,2-11.4,2.5c-2.8,0.4-5.7,0.9-8.5,1.3c-0.4,0.1-0.9-0.1-1.3-0.3c-0.5-0.3-1-0.8-1.6-1.3
			c-2.3,2-4.6,3.7-6.6,5.9c-5,5.5-8.5,12-13.1,17.7c-4.6,5.8-9.7,11.3-14.6,16.8c-0.3,0.4-0.7,0.6-1.1,0.9c-0.1,0.1-0.3,0-0.7,0
			c0.3-0.4,0.4-0.8,0.7-1.1c2.6-2.9,5.2-5.8,7.8-8.8c0.1-0.1,0.2-0.2,0.3-0.4c1.2-3.8,4.7-6,6.4-9.4c0.6-1.1,1.4-2,1-3.3
			c-0.2,0-0.3,0-0.3,0c-3.6,2.6-7.4,4.9-10.4,8.4c-0.8,0.9-1.5,1.9-2.5,2.6c-1.9,1.3-4,2.3-5.5,4.2c-0.3,0.3-0.8,0.4-1.3,0.7
			c-1.3,0.6-2.7,1.1-3.8,1.9c-5.2,3.5-10.9,5.3-17.2,5.3c-1.4,0-2.7,0-4.1,0.4c-3.5,0.8-6.8,0.2-10.2-0.2c-2.4-0.3-4.7-0.5-7.1-0.8
			c-1.8-0.2-3.5,0.1-4.9,1.3c-1.8,1.4-3.6,2.7-5.4,4.1c-1.7,1.3-1.8,3.5-2.7,5.2c-0.1,0.2,0,0.6,0.1,0.9c1.4,4.6,7.8,6.1,11,2.6
			c0.4-0.5,0.6-1.5,0.4-2.1c-0.3-1-1.3-1.1-2.2-0.9c-0.7,0.2-1.3,0.8-2,0.8c-0.6,0-1.3-0.4-1.8-0.7c-0.1-0.1,0.2-1.1,0.5-1.4
			c1.5-1.4,5.9-2.1,7.6-1.2c0.6,0.3,1.1,0.9,1.3,1.5c0.8,2.2,0.5,4.1-1.1,6.2c-1.9,2.5-4.5,2.5-7,3c-2.2,0.5-4.3-0.3-6-1.8
			c-0.4-0.4-0.8-0.8-1.3-1.1c-3.3-2.6-3.6-6-2.7-9.7c0.5-2.1,1.6-3.8,3.7-4.7c1.3-0.5,3-1.3,2.5-3c-0.4-1.5-2.1-1.5-3.5-1.6
			c-2.5-0.2-4.9-0.3-7.4-0.4c-0.3,0-0.7,0-1,0c-4.8-1-8.9,0.8-12.9,3.2c-0.8,0.5-1.6,1.1-2.4,1.5c-3.1,1.4-4.1,4.1-4.7,7.1
			c-0.4,2.2,0.7,3.7,2.8,4.3c2.2,0.6,4.2-0.1,6.2-1c1-0.5,1.8-1.3,3.3-0.8c-0.4,0.5-0.5,0.9-0.9,1.1c-2,1.2-4.1,2.1-6.4,2.5
			c-0.6,0.1-1.2,0.1-1.6,0.3c-1.3,0.8-2.4,0.3-3.6-0.2c-1.5-0.6-2.4-1.6-2.6-3.3c-0.4-2.6-0.8-5.2,0.2-7.7c0.5-1.2,1-2.1,2.1-2.8
			c3.9-2.2,7.7-4.5,11.6-6.8c2.2-1.2,4.5-1.4,7-1.3c2.5,0.2,5.2-0.2,7.6,0.3c3,0.5,6,0.1,9,0.9c2.3,0.6,4.7,0.5,7.1,0.5
			c0.9,0,1.7-0.5,2.9-1c-2.2-1.8-3.2-4.3-6.1-4.6c-0.4,0-0.8-0.5-1.1-0.8c-3.2-2.9-7-4.5-11.3-4.7c-2.3-0.1-4.5-0.3-6.8,0.4
			c-1.8,0.6-3.8,0.2-5.7,0.6c-5.3,0.9-10.6,2.3-15.4,4.8c-5.6,2.9-11.3,5.7-16.9,8.5c-0.5,0.2-1,0.4-1.6,0.3c4.3-3.7,9.7-6,14.3-9.7
			c-1.1-0.7-1.9-0.2-2.7,0c-2.9,0.7-5.8,1.2-8.6,2.2c-6.3,2.4-12.7,1.8-19.2,1.9c-0.4,0-0.9,0.1-1.2-0.1c-1.3-0.8-2.6-0.6-3.9-0.4
			c-0.2,0-0.4-0.2-0.8-0.3c0.5-1.1,1.3-1,2.2-0.9c1,0.1,2,0.1,3,0c1.7-0.3,3.4-0.7,5.2-0.2c0.7,0.2,1.5,0.2,2.1,0.1
			c2.4-0.6,4.9-1.4,7.3-2.1c0.8-0.2,1.7-0.6,2.5-0.7c3.9-0.7,7.6-1.6,11.2-3.2c3.8-1.7,7.9-2.6,11.8-4c2.6-0.9,5.1-2.1,7.8-3.2
			c-0.7-1-1.6-0.8-2.4-0.8c-3,0.2-6,0.6-9.1,0.8c-4.3,0.3-8.1,2.3-12.2,3.4c-0.9,0.3-0.9,0.4-2.2-0.3c1.5-2.4,4.4-2.7,6.6-4
			c-0.1-0.2-0.2-0.4-0.3-0.7c-1.3,0.3-2.6,0.5-3.8,1c-4.4,1.7-8.8,3.4-13.4,4.5c-4.8,1.2-9.4,2.9-14.2,4.2c-3.1,0.8-6.2,1.6-9.5,1.3
			c-1.9-0.2-3.9-0.4-5.6-1.1c-4.9-2.1-9.6-4.4-14.4-6.6c-0.9-0.4-1.7-1.1-2.6-1.7c-1.5-1.1-3-2.1-4.4-3.2c-0.3-0.3-0.6-0.7-0.7-1.3
			c0.5,0.2,1,0.3,1.4,0.5c2.1,1.2,4.2,2.3,6.2,3.6c2.6,1.7,5.4,3.1,8.4,4c3.8,1,7.4,2.6,11.3,2.9c2.3,0.2,2.9,0.1,4.9-1.1
			c-0.9-0.3-1.5-0.6-2.2-0.8c-3.7-1.1-7.6-1.6-10.9-3.4c-5.7-3.1-11.1-6.8-13.5-13.6c-1.6-4.3-4-8.3-6.1-12.5
			c-1.2-2.3-2.5-4.4-3.7-6.6c-0.2-0.3-0.3-0.7-0.3-1.1c-0.2-3.9-2.1-6.8-5-9.1c-1.5-1.2-3.4-1.9-5.2-2.9c-3-1.6-6-3.2-9.1-4.8
			c-0.6-0.3-1.3-0.6-2-0.8c-0.8-0.3-1.8-0.4-2.5-0.8c-3.3-1.9-7.1-2.2-10.7-3c-2.7-0.6-5.5-1.1-8.2-1.6c-0.2,0-0.5-0.1-0.7-0.1
			c-4.5,0.5-8.4-1.2-12.4-2.9c-1.5-0.7-3.2-1.1-4.7-1.7c-0.7-0.3-1.6-0.5-2.2-1c-2.3-1.8-4.7-3.5-7.1-5.2c-3-2.2-4.4-5.4-6.8-7.9
			c-0.7-0.8-1.2-1.7-2-2.3c-2.8-2.2-4.2-5.1-5.2-8.4c-0.6-2.2-1.2-4.5-1.9-6.7c-1.6-4.9-5-8.1-9.6-10.1c-3.4-1.5-6.8-3.3-10.5-3.9
			c-0.2,0-0.3-0.3-0.8-0.6c2.9-0.8,5.6,0.5,8.7-0.1c-0.6-0.8-0.8-1.3-1.2-1.7c-0.8-0.8-1.6-1.5-2.5-2.1c-0.4-0.3-0.8-0.5-1.3-0.5
			c-2.4-0.1-4.1-1.7-6.1-2.6c-0.1,0-0.1-0.3-0.2-0.6c0.3-0.1,0.5-0.3,0.8-0.2c2.8,0.7,5.6,1.3,8.1,2.8c4,2.4,8.2,4.7,12.2,7.1
			c1.1,0.6,1.9,1.7,2.9,2.5c0.4,0.4,1,0.7,1.4,1c0.2-0.5,0.6-0.9,0.7-1.4c0.4-4.1,1.4-8,2.6-11.9c0-0.2,0.1-0.3,0.1-0.5
			c-0.3-4.1,1.9-7.7,2.1-11.7c0.1-1.8,0.3-3.5,0.3-5.3c0-2.1-0.2-4.2,1-6.1c0.2-0.3,0.2-0.6,0.2-0.9c0.1-2.9,0.1-5.9,0.1-8.8
			c0-0.4,0-0.8,0-1.2c0.6-3.8-0.5-7.2-1.9-10.6c-2.9-6.9-3-6-8.3-9.8c-1.2-0.9-2.5-1.8-3.7-2.6c-0.6-0.4-1.3-0.8-2.4-1.4
			c-0.2,1.3-0.5,2.2-0.4,3.1c0.3,6.3,0.2,12.6-0.5,18.9c-0.1,0.6-0.1,1.3,0.1,1.9c0.9,3.7,1.8,7.4,2.9,11.1c0.7,2.5,2.2,4.6,4.3,6.2
			c1,0.8,1.9,1.7,2.9,2.5c-0.8,1.8-0.8,3.2,0.7,4.3c0.3,0.3,0.5,0.8,0.6,1.3c0.2,1.1-0.3,1.7-1.4,1.7c-1.1,0-1.9-0.4-2.7-1.3
			c-1.2-1.4-2.6-2.5-3.9-3.8c-0.6-0.5-1.2-1.1-1.8-1.6c-0.3-0.3-0.6-0.8-0.9-1.1c-3.1-3.3-5.5-6.9-7-11.3c-0.5-1.4-1.5-2.6-2.2-3.9
			c-0.5-0.9-0.8-1.9-1-2.9c-0.2-1.1-0.1-2.2,0-3.4c0.3-4.6-1.2-8.6-3.5-12.4c-2.5-4-5.5-7.4-9.8-9.6c-0.3-0.2-0.7-0.4-1-0.7
			c-0.2-0.2-0.2-0.4-0.3-0.6C8.1,281.1,8.2,281,8.3,280.8z M229.6,25.4c-0.9,0-1.8,0.2-2.7,0c-2.1-0.5-4.1-0.4-6.2,0
			c-1.9,0.4-3.8,0.3-5.7,0.6c-1.8,0.3-3.8,0.4-5.3,1.2c-4.4,2.3-8.6,4.9-11.3,9.3c-0.9,1.5-2.5,1.4-3.5,0c-0.4-0.7-0.7-1.4-1-1.9
			c1.7-1.5,3.3-2.9,4.9-4.3c1.4-1.3,2.9-2.5,4.3-3.7c0.2-0.2,0.4-0.2,0.6-0.3c1.9-0.9,3.9-1.6,5.6-2.7c1.7-1.1,3.5-1.4,5.5-1.3
			c3.2,0.1,6.4,0.2,9.6,0.2c0.9,0,1.8-0.1,1.8-1.7c-2.4-0.3-4.7-1-7.1-0.9c-2.8,0.1-5.7,0.8-8.5,1.3c-0.3,0.1-0.6,0.1-0.9,0.2
			c-2.6,1-5.4,1.3-7.4,3.6c-0.2,0.2-0.5,0.4-0.8,0.5c-2.5,1.3-4.7,3.1-6.5,5.2c-0.7,0.9-1.1,2-1.7,3.1c-0.3,0.5-0.6,1.1-1,1.5
			c-0.4,0.4-1,0.7-1.5,1.1c0.9,1.8,0.9,1.8,1.8,2.2c1.6,0.7,3.1,1.6,4.7,2.3c1.1,0.5,2.2,1,3.3,1.2c5.7,1.4,10.9-0.9,15.9-3
			c2.9-1.2,5.6-3,8.4-4.5c0.3-0.2,0.7-0.4,1-0.7c2.7-2,5.4-4,8-6c1.3-1,1.4-1.9,0-2.9c-1-0.7-2.2-1.2-3.4-1.8
			C230.4,24,230,24.7,229.6,25.4z M371.2,418.2c-1.6-0.9-2.9-0.6-4.1-0.4c-3.4,0.6-6.9,0.9-10.3,1.9c-2.6,0.8-5.3,1.4-7.7,2.6
			c-3,1.5-5.8,3.6-8.7,5.4c-0.1,0.1-0.3,0.2-0.4,0.3c-1,1.6-2.3,2.8-4,3.6c-0.8,0.4-1.5,1.2-1,2.5c0.5-0.1,1-0.1,1.4-0.2
			c3.7-0.9,7.4-1.9,11.1-2.8c1.2-0.3,2.6-0.2,3.7-0.8c2.7-1.5,5.7-2.2,8.5-3.6C364.2,424.6,367.6,421.7,371.2,418.2z M122.9,63.3
			c-0.7-0.1-1.3-0.4-1.8-0.3c-3.1,0.7-6.2,1.5-8.7,3.7c-1.4,1.2-2.7,2.5-4.1,3.7c-2,1.7-2.7,4.3-4,6.4c-0.4,0.6-0.4,1.4-0.5,2.1
			c-0.2,1.4,0.7,2.7,2,2.8c3.4,0.2,6.7-0.7,9.2-2.7c3.8-3.1,6.4-7.3,7.4-12.3C122.6,65.6,122.7,64.5,122.9,63.3z M41.1,192.5
			c2.1-0.5,4-0.8,5-2.2c1.6-2.4,4.2-3.8,5.9-6.2c1.7-2.3,3.1-4.7,3.7-7.4c1.4-6.2,2.5-12.4,3.7-18.6c0.2-0.9,0.1-1.9-0.1-2.9
			c-0.1-0.5-0.5-1-0.9-1.6c-1.8,1.5-1.8,3.5-2.3,5.2c-0.2,0.7-0.1,1.5-0.5,2c-1.2,1.5-1.5,3.3-2.1,5.1c-0.7,2.3-1.5,4.5-2.2,6.8
			c-0.1,0.2-0.2,0.4-0.4,0.6c-1.4,1.5-2,3.4-2.6,5.3c-0.6,2-1.1,4-2.1,5.8c-1.2,2.3-2.9,4.4-4.3,6.6
			C41.7,191.5,41.5,191.8,41.1,192.5z M396.9,401c1.3-0.1,2.2,0,3-0.4c2.7-1.2,5.6-2.2,7.8-4c4.6-3.7,8.8-7.9,13.2-11.9
			c0.8-0.7,1.5-1.5,1.9-2.5c1.3-2.8,2.4-5.7,3.5-8.6c0.1-0.3-0.2-1.2-0.5-1.3c-0.7-0.3-1.3,0.2-1.3,0.9c0.1,1.2-0.7,1.7-1.3,2.4
			c-2,2.5-4.8,4.2-6.9,6.5c-2.5,2.7-5.6,5.1-8.7,7.1C403.2,392.2,399.8,395.9,396.9,401z M434.7,351.4c2.5-1,3.8-2.3,4.4-4.3
			c0.2-0.7,0.5-1.3,0.8-1.9c0.5-1.1,1.3-2,1.6-3.1c0.9-4.1,1.7-8.3,2.2-12.5c0.2-1.7-0.1-3.5-0.3-5.2c-0.1-0.6-0.6-1-1-1.6
			c-1.5,0.5-2.5,1.3-3,2.7c-0.4,0.9-0.9,1.9-1.6,2.7c-3.5,4.4-3.8,9.7-3.6,15c0.1,1.8,0.3,3.6,0.4,5.5
			C434.8,349.3,434.7,350.1,434.7,351.4z M117.8,59.2c-3.2,0.2-5.7,2-8.1,3.9c-4.5,3.6-6.9,7-6.8,9.2c2.3-2.3,4.7-4.6,6.9-7.1
			C112.1,62.5,115.5,61.7,117.8,59.2z M340.8,82.7c-0.2-0.3-0.4-0.6-0.7-0.8c-1.4-0.8-2.8-1.5-4.2-2.2c-1-0.5-1.9-1.2-2.9-1.6
			c-0.3-0.1-0.8,0.1-1.3,0.2c0.1,0.4,0,1,0.3,1.3c2,1.6,4.1,3.3,6.7,4.1C339.5,83.8,340.3,83.8,340.8,82.7z M89.9,85.8
			c0-0.2,0-0.4,0.1-0.6c-0.4-0.2-0.9-0.5-1.2-0.4c-2.1,0.4-4.2,0.8-6.3,1.3c-0.9,0.2-1.6,0.6-1.8,1.8C83.9,87.4,87.1,87.1,89.9,85.8
			z M220.1,42.1c3.2,0.9,8.1-1.8,9.2-5c-2.4,1.2-4.5,2.3-6.7,3.5C221.8,40.9,221.1,41.4,220.1,42.1z M237.7,25.9
			c1.1-0.9,1.9-1.5,3.1-2.5c-2.5-0.2-3.5-2.7-5.8-2C234.9,23.5,236.8,24.1,237.7,25.9z M197.9,10.5c-0.1-1.1-0.1-2.1-0.4-3.1
			c-0.1-0.4-0.6-0.9-0.9-0.9c-0.3,0-0.9,0.3-1.1,0.7c-0.4,0.7-0.7,1.4-0.8,2.2c-0.3,1.6,0.4,2.1,2,1.7
			C197,10.9,197.3,10.8,197.9,10.5z M121.2,79.3c0.1,0.1,0.2,0.2,0.4,0.3c3.1-1.6,4.6-4.3,3.7-7.1C123.8,74.9,122.5,77.1,121.2,79.3
			z M408,123c-0.1,2-0.5,3.8,0.8,5.3c1.5-1,1.6-1.1,1.4-2C410,125.1,410,123.6,408,123z M98.1,90.5c-1.7-0.3-3.3-1.3-5.2-0.3
			C95.2,92.9,97,93,98.1,90.5z M101.9,74.6c-1.9,0.8-2.6,3.5-1.8,6c0.3-0.1,0.7-0.2,0.8-0.4C101.3,78.3,101.6,76.5,101.9,74.6z
			 M473.1,312.7c2.2,2.5,4,3,5.5,1.4c-1.7-0.6-3.4-1.3-5-1.9C473.6,312.2,473.4,312.4,473.1,312.7z M453.2,198.7
			c3.4-2.1,3.8-2.7,3-4.5C455,195.4,453.3,196.3,453.2,198.7z M235.3,32.4c-3.1,1.9-3.4,2.2-3.9,3.7
			C233.2,35.6,234.5,34.7,235.3,32.4z M47.3,355.9c1-2.1,1.1-3.3,0.3-4.9C46.3,353.7,46.2,354.3,47.3,355.9z M420.8,119.5
			c0.7,0.5,1.2,1,1.9,1.3c0.3,0.1,0.9-0.3,1.1-0.6c0.1-0.3-0.1-1-0.4-1.1C422.7,118.6,421.8,118.5,420.8,119.5z M440.9,211.3
			c-1.6,1.1-1.6,1.1-0.9,2.7C441.6,213.1,441.6,213.1,440.9,211.3z M28.9,295.3c0.7-1.2,1.1-2.3,0-3.6C27.6,293,29,294.2,28.9,295.3
			z M419.4,122.7c0.1,0.4,0.1,0.7,0.2,0.9c0.4,0.7,0.9,1.2,1.7,0.9c0.2-0.1,0.5-0.6,0.5-0.9c-0.1-0.8-0.8-1.1-1.6-1.1
			C420,122.5,419.8,122.6,419.4,122.7z M374.7,414.5c-1.3-0.4-2.3-0.2-3.4,0.9C372.9,416.4,373.8,415.3,374.7,414.5z M62.7,158.9
			c-0.2,1-1.3,2.1-0.1,3.4C63.3,161.1,63.5,160.1,62.7,158.9z M124.8,58c-1,0-1.8,0.2-1.8,1.3c0,0.2,0.4,0.6,0.6,0.6
			C124.6,59.8,125,59.2,124.8,58z M420.6,390.1c-1.6,0.1-1.6,0.1-2.3,1.9C419.5,391.5,420.5,391.4,420.6,390.1z M428.4,134
			c-1.1,1.8-1,2,0.8,2.5C429,135.6,428.7,134.9,428.4,134z M152.9,430c-1.1,1.6-1.1,1.6,0.6,2.5C153.3,431.6,153.1,430.9,152.9,430z
			 M125.5,56.9c0.5-1.1,0.5-1.1,0-2.1C124.6,55.6,124.7,56.2,125.5,56.9z M46.6,175.5c-0.3-0.2-0.5-0.3-0.5-0.3
			c-0.4,0.6-0.9,1.3-1.3,2c0.2,0.1,0.4,0.2,0.6,0.3C45.8,176.9,46.2,176.2,46.6,175.5z M442.5,316.9c1.3,0.8,1.7,0.1,1.8-1
			C443.7,316.3,443.1,316.6,442.5,316.9z M415.7,377c-1-0.1-1.6,0-1.7,1C415,378.5,415.6,378.4,415.7,377z M39.3,188.3
			c1.2-0.6,1.2-0.6,1-1.9C39.9,187.3,39.6,187.8,39.3,188.3z M431.3,336c-1.4,0.8-1.4,0.8-0.7,2.7
			C430.9,337.5,431.1,336.9,431.3,336z M217.9,43.1c0.1,0.2,0.3,0.5,0.4,0.7c0.5-0.3,1-0.6,1.5-0.9c-0.1-0.2-0.2-0.4-0.3-0.5
			C219,42.6,218.4,42.8,217.9,43.1z M453.6,308.6c-1-0.2-1.5,0.2-1.9,1C452.7,310,453.2,309.6,453.6,308.6z M438.5,169.4
			c-0.6-1.2-0.6-1.2-1.9-0.9C437.4,168.9,438,169.1,438.5,169.4z M432,331.4c-0.2,0-0.4,0-0.7,0c0,0.4,0,0.9,0,1.3
			c0.2,0,0.6,0,0.6-0.1C432,332.3,432,331.8,432,331.4z M403.5,405.3c-0.1-0.2-0.1-0.4-0.2-0.6c-0.5,0.1-1,0.3-1.5,0.5
			c0,0,0.1,0.4,0.1,0.9C402.5,405.7,403,405.5,403.5,405.3z M399.4,103.6c-0.6-0.5-1-0.8-1.7-1.3C397.8,103.6,398.2,104,399.4,103.6
			z M60.9,144.5c0.1,0,0.3-0.1,0.4-0.1c-0.1-0.3-0.2-0.6-0.2-0.9c-0.1,0.1-0.4,0.1-0.4,0.2C60.7,144,60.8,144.3,60.9,144.5z
			 M93,85.3c-0.1-0.1-0.1-0.3-0.2-0.4c-0.4,0.1-0.7,0.3-1.1,0.4c0.1,0.2,0.2,0.4,0.3,0.5C92.4,85.7,92.7,85.5,93,85.3z"/>
		<path fill="#bfad86" d="M366.4,120.3c0.3,2.6,0.2,4.7-0.8,6.9c-1.7,4-2.2,8.1-2.1,12.4c0.2,5.4,0.1,10.7,0.1,16.1c0,3.3-0.8,6.5-1.9,9.6
			c-0.8,2.3-0.9,4.5,0.8,6.6c-0.3,0.6-0.5,1.2-0.9,1.7c-5.7,9.2-12.9,16.9-21.8,23c-2.6,1.8-5.5,3.2-8.4,4.6c-2,1-4.1,1.8-5.7,3.5
			c-0.5,0.5-1.3,0.8-1.9,0.8c-0.6,0-1.4-0.5-1.7-1c-0.2-0.4,0-1.3,0.3-1.7c1-1.1,2.2-2.1,3.3-3.1c2.6-2.3,5.3-4.4,7.7-6.8
			c5.3-5.3,7.8-12,9.2-19.2c0.1-0.8,0.1-1.6-0.1-2.4c-1.3-4.2-1.5-8.6-1.9-13c-0.5-5.1-2.7-9.5-6.4-13.1c-2.3-2.3-4.6-4.7-6.9-7
			c-5.4-5.4-11.8-9.3-18.8-12.1c-5.9-2.4-12.1-2-18.2-1.5c-2.1,0.1-4.1,0.7-6.2,0.6c-5.8-0.1-10,3.4-14.3,6.6
			c-0.5,0.4-1,0.9-1.3,1.4c-2.4,3.8-4.9,7.5-7.1,11.4c-0.8,1.3-1.2,3-1.4,4.5c-0.2,2.1-0.8,3.9-1.8,5.6c-2.4,3.8-3.4,7.8-3.2,12.3
			c0.2,4.4,0.1,8.8,0,13.2c-0.1,3.5,0.3,7,0.9,10.5c0.6,3,0.9,6.2,0.9,9.3c0.1,6.7-0.1,13.4,0,20.2c0.1,4.8,0.6,9.6,0.8,14.4
			c0.3,6.1,0.7,12.1,0.5,18.2c-0.1,5.6,0.1,11.2,0.9,16.7c1.1,7.8,1.5,15.6,1.7,23.4c0.1,3.8,0.3,7.7,0.9,11.5
			c0.6,3.5,0.5,7-0.5,10.5c-0.8,2.8-0.8,5.6-0.4,8.5c0.8,4.7,1.3,9.3,2,14c0.1,0.4,0,0.8,0.1,1.2c0.8,3.3,1,6.6,0.4,10
			c-0.7,3.7,0,7.5,0.7,11.2c0.5,2.7,1.1,5.5,1.7,8.2c1.2,5.9,3.6,11.3,7,16.2c2.9,4.1,6.7,7.1,11.1,9.3c1.4,0.7,3.1,0.8,4.6,1.3
			c1.3,0.4,2.7,0.6,3.8,1.2c1.7,0.9,2.1,2.6,1.4,4.3c-0.9,2-2.8,3.2-4.5,2.7c-9.5-3-19.1-5.8-28.5-9.1c-4-1.4-7.8-3.7-11.6-5.7
			c-2.7-1.4-3.1-1.5-5.6,0.4c-1.1,0.9-2.1,1.9-3.2,2.9c-1.2,1.1-2.3,2.2-3.6,3.2c-0.9,0.7-1.5,1.4-1.7,2.5c-0.2,2-2,3-3.9,2.5
			c-1.3-0.3-2.3,0.1-3.4,0.5c-2,0.8-4.1,1.4-6.1,2c-2.5,0.8-5,1.5-7.6,2.2c-0.6,0.2-1.3,0.2-1.9,0.2c-5.3,0-10.6,0-15.8,0
			c-0.7,0-1.4-0.1-2.1-0.2c-2.3-0.5-4.7-1-7-1.5c-2.4-0.5-4.8-0.9-7.1-2.3c1-1.1,2.2-1.6,3.5-1.6c1.2,0,2.4,0,3.6,0.2
			c9.9,1.5,18.5-1.4,25.8-8.1c2-1.8,3.7-4,5.5-6c0.2,0.1,0.4,0.2,0.5,0.3c-0.2-0.5-0.3-1-0.5-1.5c-0.3-1.1-0.1-2,0.5-3
			c1.1-1.9,2.2-3.9,3.2-5.9c0.3-0.6,0.5-1.2,0.9-1.7c1.8-2,1.9-4.4,1.9-7c-0.1-10.8-0.1-21.6,0-32.4c0-5.6-0.6-11.2-1.5-16.7
			c-0.4-2.3-0.9-4.5,0.5-6.7c0.3-0.5,0.2-1.2,0.1-1.9c-0.6-5.4-1.2-10.8-1.8-16.2c-0.2-1.6-0.3-3.2-0.5-4.8
			c-0.8-5.7-0.6-11.3,0.8-16.9c0.9-3.7,0.4-7.5-0.1-11.2c-0.8-6.7-1.6-13.3-2.3-20c-1-9.2-0.9-18.5-0.9-27.8c0-4.2-0.6-8.3-1-12.4
			c-0.6-6.5-0.6-13.1-1-19.6c-0.5-7.6-1.2-15.1-2.8-22.6c-1-4.8-3.2-8.8-6.6-12.2c-2.3-2.2-4.1-4.9-6.3-7.2c-0.9-1-2-1.8-3.2-2.4
			c-4.8-2.4-9.8-4.4-15.1-5.4c-3.4-0.6-6.8-0.9-10.3-0.5c-4.3,0.5-8.6,0.6-12.9,1.1c-7.3,0.8-13.4,4-18.3,9.5
			c-1.7,1.9-3.3,3.9-4.9,5.9c-2.2,2.8-3.9,5.9-4.9,9.3c-0.4,1.2-0.6,2.5-0.5,3.7c0.1,1.8-0.2,3.5-1.1,5.1c-2.1,3.4-2.2,7.1-1.5,10.9
			c0.4,2.4,0.7,4.7,0.4,7.1c-0.4,3,0.4,5.9,2.4,8.3c0.4,0.5,0.8,1.2,1,1.9c1.1,3.7,3.4,6.7,6.5,8.9c2.4,1.7,5,3.2,7.6,4.5
			c4.1,2.1,8.6,1.9,12.9,0.7c3.7-1,7.4-2.2,10.9-3.7c8.4-3.7,12.5-10.7,13.4-19.6c0.8-7.6-2.6-13.5-8.1-18.3
			c-0.5-0.5-1.1-0.9-1.6-1.4c0,0,0-0.2,0-0.4c1-0.6,1.7,0.2,2.4,0.7c4.5,3.4,7.3,7.8,8.5,13.2c1.5,6.5,0.6,12.5-3,18.2
			c-3.2,5.1-7.5,9.1-12.4,12.5c-2.3,1.7-5.1,2.4-7.9,2.6c-7.8,0.6-15.5-0.4-22.7-3.6c-8.1-3.7-18.2-12.8-22.5-20.3
			c-3-5.2-4.7-10.8-6.2-16.6c-2.4-9.2-4.3-18.5-5.8-27.9c-0.4-2.2-1.1-4.3-1.9-6.4c-0.6-1.8-0.3-3,1.5-3.5c1-0.3,2.2-0.1,3.3,0.1
			c1.1,0.2,2.1,0.8,3.1,1.2c5.6,2.3,11.4,2.4,17.2,1.2c9.4-1.9,18.8-3.8,28.2-5.8c5.7-1.2,11.3-2,17.1-1.9c1.9,0,3.8-0.2,5.7-0.6
			c9-2.1,17.8-0.7,26.5,1.9c9.5,2.9,17.8,7.9,24.9,14.9c1,1,2.2,1.9,3.3,2.8c0.9,0.7,1.7,0.5,2.5-0.3c5.6-5.5,12-10,18.4-14.6
			c4-2.9,8.4-4.9,13.1-6.3c3-0.9,5.9-2,8.9-2.9c0.7-0.2,1.4-0.4,2.1-0.4c3.6,0,7.2-0.2,10.8,0c4.5,0.3,9,1,13.6,1.5
			c1.4,0.2,2.9,0.4,4.3,0.3c6.1-0.2,11.9,1,17.6,3.2c4.4,1.7,9,2.8,13.8,2.8c4.6,0,8.9-1.2,12.9-3.2c2.2-1.1,4.4-2.3,6.6-3.5
			c0.2-0.1,0.5-0.2,0.6-0.3C360.7,119.3,363.6,120.4,366.4,120.3z M269,127.5c-3.1-0.6-3.8-0.2-5.3,2.1c-0.4,0.6-0.9,1.1-1.5,1.4
			c-4.8,2.4-8.5,6-11.5,10.3c-0.8,1.2-1.6,2.4-1.6,3.9c0,0.6-0.3,1.3-0.8,1.7c-2.2,1.9-3.3,4.5-4.3,7.1c-0.5,1.3-1,2.5-1.7,3.7
			c-0.7,1.2-1,2.5-1.1,3.9c-0.1,1.2-0.2,2.5-0.7,3.5c-1,1.8-1.1,3.6-1,5.6c0.2,3.8,0.4,7.5,0.4,11.3c0.1,5,0.1,10.1,0.2,15.1
			c0.1,3.7,0.4,7.4,0.3,11c-0.2,5.8,1,11.6-0.2,17.4c-0.1,0.3,0,0.6,0,1c0.5,4.9,1.1,9.8,1.4,14.8c0.4,4.9,1,9.7,0.3,14.6
			c-0.2,1.2-0.1,2.6,0.2,3.8c0.6,2.4,0.7,4.9,0.6,7.4c-0.2,5.4,0.4,10.7,1.2,16c0.4,2.9,0.7,5.9,0.8,8.8c0.2,4.6-0.4,9.3,0.6,13.9
			c0.1,0.4,0,0.8,0,1.2c0.1,2.5,0.2,4.9,0.2,7.4c0,1,0.1,2.1,0,3.1c-0.1,1.8-0.3,3.7-0.3,5.5c0.5,9.5,0.7,19-0.5,28.5
			c-1.7,13.6-7.6,25.1-16.8,35.1c-3.3,3.6-7.3,6.5-11.4,9.1c-1,0.7-2,1.6-2.7,2.6c-0.7,1.1-0.1,2.1,1.3,1.9c1-0.1,2-0.5,2.9-1
			c8.8-4.9,16.9-10.6,23-18.9c0.8-1,1.5-2,2.4-3c2.7-2.8,4.3-6.1,5.3-9.8c1-3.8,2-7.6,2.8-11.4c0.4-1.9,0.7-3.8,0.8-5.7
			c0.2-2.2,0-4.5,0.4-6.7c1.6-9.9,1.6-19.9,0.3-29.9c-0.5-3.7-0.8-7.5-0.4-11.2c0.3-3.7,0.2-7.3-0.3-11c-0.2-1.5-0.4-3-0.5-4.5
			c-0.2-6.1-0.3-12.1-0.4-18.2c0-1,0-2.1-0.3-3.1c-0.6-2.3-0.9-4.7-0.6-7.1c0.1-1.4,0.1-2.9,0-4.3c-0.3-4-0.8-8-0.9-11.9
			c-0.2-7-0.1-14.1-0.1-21.1c0-2.3-0.1-4.5-1-6.6c-0.3-0.7-0.2-1.5-0.2-2.3c0.3-4.5,0.7-8.9-0.2-13.4c-0.4-2-0.5-3.9-0.2-5.9
			c0.2-1.3,0.2-2.7,0-4.1c-0.7-3.4-0.4-6.8,0-10.3c0.4-3.5,1.1-7,0.2-10.5c-0.7-2.5-0.1-4.7,0.6-7c0.8-2.4,1.3-4.9,2.1-7.4
			c0.2-0.8,0.7-1.6,1.1-2.3c0.7-1.2,1.9-2.4,2.2-3.7c0.6-2.8,1.9-5,3.8-7c0.2-0.2,0.4-0.5,0.6-0.8c2.4-3.9,5.5-7.2,8.8-10.5
			C267.8,128.9,268.4,128.2,269,127.5z M356.6,128c-1.7-0.7-2.6,0.1-3.3,1.1c-3.2,4.1-4.9,8.8-4.9,14c0,6.2,0.6,12.3,1.6,18.4
			c0.2,0.9,0.3,1.8,0.2,2.6c-0.5,3.2-0.9,6.3-1.6,9.4c-0.9,4.2-2.8,8-5.3,11.4c-0.5,0.7-0.8,1.6,0.1,2.4c0.8,0.7,1.6,0.6,2.5-0.4
			c0.8-0.9,1.5-1.9,2.2-2.8c1.7-2.1,5.9-10.6,6.5-13.2c0.1-0.4,0.2-0.8,0.2-1.2c0.2-2.6,0.3-5.3,0.7-7.9c0.3-2.4-0.1-4.6-0.7-6.9
			c-0.5-2.2-0.9-4.5-1.1-6.8c-0.2-2,0.1-4,0.1-6c0-1.6,0.4-3.1,1.5-4.5c0.7-0.9,1.2-2,1.3-3C356.7,132.5,356.6,130.3,356.6,128z
			 M128.5,195c1.2-1.3,0.3-2.2-0.1-3.1c-2.2-4-3.9-8.2-4.3-12.9c-0.2-3.3-0.2-6.5-0.2-9.8c-0.1-4.5,0.4-8.9,1.6-13.3
			c0.3-1.2,0.5-2.3,0.7-3.5c0.6-3.5,1.3-6.9,3.4-9.9c0.3-0.4,0.5-1,0.5-1.6c0.1-1.1,0-2.1-1-2.8c-0.7-0.5-2.3-0.3-3.1,0.7
			c-0.7,0.9-1.4,2-1.8,3.1c-1.7,4.7-3.3,9.5-5,14.2c-0.4,1.2-0.5,2.3,0.1,3.5c0.7,1.2,0.6,2.4-0.1,3.6c-1,1.9-1.4,3.9-1.2,6
			c0.2,3.3,0.4,6.5,0.9,9.8c0.2,1.4,0.8,2.8,1.7,3.9c0.8,1.1,1.3,2.1,1.5,3.4C122.9,190.1,124.9,193.1,128.5,195z M254.2,374.7
			c0.2,0.8,0.4,1.7,0.7,2.4c3,6,8,10.3,13.2,14.2c0.9,0.6,1.8,0.7,2.6-0.1c0.8-0.9,0.4-1.7-0.3-2.6c-1.2-1.6-2.2-3.3-3.4-4.9
			c-1.1-1.5-2.1-3-3.4-4.3c-1.7-1.7-3-3.5-3.1-6c0-0.5-0.2-0.9-0.4-1.4c-0.6-1.3-1.7-2-3-1.9c-1.3,0.1-2,0.9-2.3,2.1
			C254.6,373.1,254.5,373.9,254.2,374.7z M208.3,132.8c-0.8,0.4-1.7,0.8-2.8,1.4c0.7,0.7,1.1,1.3,1.7,1.7c1.2,1,2.5,2,3.8,2.9
			c5.1,3.1,8.5,7.6,10.5,13.2c0.8,2.1,1.7,4.1,2.7,6.1c0.2,0.4,0.6,0.8,1.1,1.3c0.5-3.8,1.1-7.4,1.5-10.9c0.2-1.5-0.6-2.6-1.8-3.4
			c-1.2-0.9-2.4-1.8-3.6-2.7c-0.6-0.4-1.3-0.9-2.1-1.1c-1.4-0.3-2.2-1.1-3-2.2c-0.7-0.9-1.6-1.8-2.5-2.5
			C212.1,135.4,210.4,134.2,208.3,132.8z M205.1,134c-1.8-2.9-4.3-3.8-6.9-2.7C200.2,132.8,202.2,134.1,205.1,134z"/>
		<path fill="#bfad86" d="M37.5,161.7c2.3-0.6,2.7-2.3,2.5-4.4c-0.1-1-0.2-2.1-0.2-3.1c0-4.9-2.9-7.9-6.8-9.9c-1.9-1-3.9,0-5.6,1.2
			c-2.1,1.5-3,3.9-3.9,6.2c-0.4,1,0,1.8,1.1,2.8c1.1-0.4,1.2-1.3,1.2-2.3c0.1-0.7,0.6-1.3,0.9-2c2.7,1.4,3.6,3.5,3.8,6
			c0.1,1.8-1.5,3.6-3.4,4.1c-3.4,0.8-7.6-1.6-8.5-5c-0.2-0.7-0.1-1.6,0.1-2.4c0.5-1.8,1.1-3.5,1.7-5.2c1.1-3.1,3.5-5.4,6.3-6.6
			c2.8-1.3,6.2-1.4,9,0.9c1.3,1.1,2.8,1.8,4.1,2.9c0.7,0.6,1.3,1.6,1.7,2.5c0.7,1.8,1.2,3.6,1.7,5.5c0.2,0.7,0.3,1.4,0.3,2.1
			c0.1,0.7,0,1.4,0,2.2c0.3,4.2-0.6,8.1-2.1,11.9c-0.7,1.6-0.9,3.4-1.5,5c-1.4,3.7-4.4,6-7.1,8.6c-1.5,1.5-2.9,3.2-4.3,4.8
			c-0.6,0.7-1.1,1.6-1.8,2.2c-2.9,2.3-3.1,5.5-2.7,8.7c0.2,1.8,0.2,3.3-1.7,4.2c-0.6,0.3-0.9,1.1-1.4,1.6c-0.6,0.6-1.4,1.1-2.4,0.6
			c-0.9-0.4-0.9-1.2-1-2c-0.1-2.5-0.3-4.9-0.3-7.4c-0.1-4.8,1.2-9,4.8-12.3c0.6-0.6,1-1.4,1.7-2c1.2-1.2,2.4-2.6,3.9-3.5
			c1.7-1,3.1-2.2,4.3-3.7c0.5-0.6,0.8-1.3,1.2-2c0.2-0.4,0.3-0.9,0.6-1.3c2-2.1,2.9-4.6,3.3-7.3C37.2,162.8,37.4,162.3,37.5,161.7z"
			/>
		<path fill="#bfad86" d="M473.2,233.4c0.6-3.9,0.2-7.6-2.4-10.8c-2.8-3.4-5.7-6.7-9.3-9.3c-1.6-1.2-3.5-2-5.3-2.8c-1.4-0.7-2.3-1.6-2.5-3.3
			c1.9-0.4,3.5,0,4.7,1.5c0.8,0.9,1.8,1.2,2.8,1.7c3.6,1.6,7.1,3.3,9.2,6.9c1.3,2.2,2.7,4.3,4.2,6.4c2.5,3.4,4.1,7,4,11.3
			c-0.1,3.8,0.6,7.7,0.1,11.4c-0.4,3.3-0.9,6.5-0.5,9.8c0.4,3.6-1.1,6.9-1,10.4c0,0.5-0.2,0.9-0.4,1.4c-0.4,0.8-0.7,1.9-1.9,2
			c-1.2,0.1-1.3-1-1.6-1.8c-0.7-1.6-1.3-3.2-1.7-4.9c-0.2-0.6,0.2-1.4,0.5-2c0.9-2.4,1.3-4.8,0.3-7.2c-0.3-0.7-0.3-1.4-0.4-2.1
			c-0.1-0.7-0.1-1.6-0.5-2.1c-1.7-2.2-1.1-4.9-1.5-7.3c-0.1-0.5-0.1-1.2-0.4-1.6c-2.2-2.8-3-6.2-4.2-9.3c-1.4-3.9-4-6.7-7.1-9.2
			c-1.1-0.9-2.5-1-3.9-0.8c-2.5,0.3-3.6-0.9-3-3.4c0.2-0.8,0.3-1.6,0.4-2.4c0.2-1.8,0.4-1.9,2.2-2.2c2.3-0.4,4.2,0.8,6,1.9
			c2.3,1.3,4.1,3.3,5.1,5.9c0.3,0.8,0.8,1.6,1.4,2.2c2.2,2.2,4,4.5,5,7.5c0.3,0.9,0.8,1.7,1.3,2.5
			C472.8,233.5,473,233.5,473.2,233.4z M475.8,243.2c0.2,0,0.4-0.1,0.6-0.1c0.1-1,0.3-1.9,0.2-2.8c0-0.3-1-0.5-1.5-0.7
			c-0.2,0.4-0.6,1-0.5,1.3C474.9,241.7,475.4,242.4,475.8,243.2z"/>
		<path fill="#bfad86" d="M395.6,67.1c-4.5-0.4-4.5-0.4-5.8,0.9c0,0.2,0,0.4,0.1,0.4c3.1,1.5,4.2,4.5,5.5,7.3c0.7,1.5-0.5,3.6-2,3.6
			c-1.6,0-3.2-0.2-4.7-0.7c-1.3-0.4-2.1-1.5-2.4-3c-0.2-1.6-0.7-3.3-1.4-4.8c-0.8-1.7-2.6-1.7-4.2-1.9c-3.9-0.3-7.7-0.2-11.6,0.3
			c-1.1,0.1-2.4-0.3-3.4-0.8c-1.3-0.7-2.5-1.7-3.7-2.6c-0.8-0.6-1.5-1.2-2.8-0.6c0.3,0.5,0.6,1.1,0.9,1.6c1.8,2.3,3.5,4.6,5.4,6.8
			c1.8,2.2,2.6,4.9,4.1,7.7c-0.8-0.1-1.5-0.1-1.6-0.3c-0.8-1.7-1.9-2-3.5-0.7c-0.7-0.8-1.4-1.4-1.8-2.1c-1.8-2.7-3.6-5.5-5.4-8.2
			c-0.1-0.1-0.2-0.3-0.3-0.4c-3.6-4.2-7.2-8.5-11-12.6c-1.2-1.3-3-2.1-4.5-3c-3.7-2.2-7.7-3.4-11.9-4.1c-0.6-0.1-1.5,0-1.4-0.9
			c0-0.5,0.6-1,1.1-1.3c0.5-0.3,1.1-0.5,2.1-0.8c-0.7-0.6-1.1-1.1-1.6-1.3c-0.9-0.4-1.8-0.5-2.8-0.8c-1-0.3-2-0.7-2.3-2.2
			c0.6-0.2,1.2-0.7,1.7-0.6c2.2,0.9,4.7,0.6,6.9,1.7c2.9,1.4,6.2,2.1,9.2,3.2c0.8,0.3,1.5,0.8,2.3,1.1c4.9,2,8,6.3,11.8,9.6
			c0.5,0.4,0.9,0.9,1.3,1.4c3.8,4.7,8.8,6.8,14.7,6.9c3.4,0,6.7,0.2,10,1c0.9,0.2,2.1,0,2.9-0.5c1.8-0.9,3.6-1.3,5.5-0.9
			c1.1,0.2,2.2,0.1,3.3,0.2C395.5,65.7,396.2,66,395.6,67.1z M387.9,71.3c-0.2,1.1-0.4,2.1-0.6,3.1c0.7,0.6,1.4,1.1,2,1.5
			c1.7,1.2,2.1,1.1,3.7-0.9C391.9,73.2,390.8,71.2,387.9,71.3z"/>
		<path fill="#bfad86" d="M74.9,386.8c-1.1,2.6-1.5,2.8-3.5,2.2c-0.8-0.3-1.7-0.6-2.3-1.2c-0.7-0.8-1.5-1.2-2.5-1.7c-0.7-0.3-1.3-1.1-1.7-1.8
			c-1-1.6-1.9-3.3-3-4.9c-0.9-1.2-1.2-2.5-1.2-4c0-2.5-0.2-4.9-0.2-7.4c0-1.7,0-3.5,0.3-5.2c0.8-4.6,0.8-9-0.9-13.4
			c-0.4-1-0.8-1.8-1.8-2.4c-0.7-0.4-1.1-1.3-1.6-1.8c0.1-0.4,0.2-0.6,0.3-0.7c2.6-3.1,4.1-3.1,6.8-0.3c0.5,0.6,1.1,1.2,1.4,1.9
			c1.1,2.8,2,5.7,2.9,8.6c0.1,0.4,0.2,1,0.1,1.4c-0.6,2.2,0,4.4-0.1,6.6c-0.2,4.2,0.6,8.3,1.2,12.3c0.2,1.6,0.4,3.2,0.8,4.7
			C70.7,382.8,71.9,385.4,74.9,386.8z"/>
		<path fill="#bfad86" d="M462.6,274.3c-1-0.1-1.7-0.1-2.4-0.3c-4.7-1.5-9.5-0.2-12.5,3.6c-1.6,2.2-2.9,4.6-4.1,7c-0.9,1.9-0.8,3.9-0.4,5.9
			c0.2,0,0.3,0.1,0.5,0.1c0.4-0.6,0.7-1.3,1.2-2c0.8,0.2,1.6,0.4,2.5,0.6c1.2-1,1.6-2.2,1.2-4c0.4,0.3,0.8,0.5,0.8,0.7
			c0.3,1.9,0.9,3.9-0.4,5.7c-0.4,0.5-0.5,1.2-0.7,1.8c-1.1,3.1-2.8,3.9-6,3c-0.9-0.3-1.8-0.5-2.8-0.8c-1.1,3.2-2.5,5.8-5.6,7.3
			c0-0.3-0.1-0.6,0-0.6c3.7-2.9,4.2-6.9,4.3-11.2c0-2.9,0.4-5.7,0.6-8.6c0.1-0.6,0.3-1.3,0.6-1.8c1.2-1.9,2.5-3.7,3.6-5.6
			c1.2-2.1,2.7-3.9,4.4-5.6c0.9-1,1.9-2,3-2.7c2.4-1.6,4.9-1.4,7.4,0.1c0.6,0.4,1.2,0.8,1.9,1.1c1.2,0.6,2.4,1.1,1.9,3
			C461.4,271.9,462.1,273,462.6,274.3z"/>
		<path fill="#bfad86" d="M71.8,404.5c4,1.5,7.8,2.9,11.6,4.3c2.8,1.1,5.8,1,8.8,0.9c3.9-0.1,7.8,0,11.7,0.7c3.7,0.6,7,2,10.2,3.9
			c1.4,0.9,2.9,1.7,4.4,2.4c4.5,2.1,7.6,6.9,7.3,11.9c-0.1,2.1-0.2,4.1,0.7,6.1c0.2,0.6,0,1.3,0,2.5c-0.8-0.7-1.3-0.9-1.6-1.3
			c-0.5-1-1.1-2-1.3-3.1c-0.5-2.8-2.1-4.9-3.2-7.4c-0.3-0.7-1-1.2-1.7-1.7c-1.9-1.3-3.5-2.8-4.7-4.7c-0.3-0.5-0.7-1.1-1.3-1.4
			c-1.9-1-3.9-2-6-2.8c-1.5-0.6-3.1-0.8-4.6-1.2c-1.8-0.5-3.6-1-5.4-0.4c-0.2,0.1-0.5,0.1-0.7,0c-8.1-0.4-16-2-22.9-6.5
			C72.2,406.3,71.1,405.9,71.8,404.5z"/>
		<path fill="#bfad86" d="M172.1,161.7c-0.6,1.1-1.3,1.1-2.2,0.8c-3.6-1.4-7-0.7-10.4,0.8c-1.8,0.8-3.7,1.3-5.7,2c-0.6,3.3-1.2,6.7-4.7,8.4
			c-1.2-0.7-1.4-1.6-0.9-2.7c3.9-8.7,13.9-14.7,23.4-9.9C171.7,161.3,171.8,161.5,172.1,161.7z"/>
		<path fill="#bfad86" d="M338.4,481.7c-1,0.8-2,1.5-3,2.3c-0.3,0.2-0.7,0.3-1.2,0.6C335.8,482.5,336.7,481.8,338.4,481.7z"/>
	</g>
</g>
</svg>
